<svg width="50" height="50" viewBox="0 0 50 50" fill="none" xmlns="http://www.w3.org/2000/svg">
<g clip-path="url(#clip0_198_8268)">
<path d="M7.39567 20.6296C6.58956 20.6296 5.93604 19.976 5.93604 19.1699V16.2507C5.93604 15.4445 6.58956 14.791 7.39567 14.791C8.20178 14.791 8.85531 15.4445 8.85531 16.2507V19.1699C8.85531 19.976 8.20178 20.6296 7.39567 20.6296Z" fill="#66334D"/>
<path d="M35.1288 16.2505V19.1698C35.1288 19.9755 34.4749 20.6294 33.6692 20.6294H16.1535C15.3478 20.6294 14.6938 19.9755 14.6938 19.1698V16.2505C14.6938 13.8363 16.6585 11.8716 19.0728 11.8716H30.7499C33.1641 11.8716 35.1288 13.8363 35.1288 16.2505Z" fill="#66334D"/>
<path d="M35.1286 16.2505V19.1698C35.1286 19.9755 34.4747 20.6294 33.669 20.6294H24.9111V11.8716H30.7497C33.1639 11.8716 35.1286 13.8363 35.1286 16.2505Z" fill="#66334D"/>
<path d="M35.1286 16.2505V19.1698C35.1286 19.9755 34.4747 20.6294 33.669 20.6294H24.9111V11.8716H30.7497C33.1639 11.8716 35.1286 13.8363 35.1286 16.2505Z" fill="#4D2739"/>
<path d="M49.8223 22.0894V33.7665L24.9112 36.1019L0 33.7665V22.0894C0 19.6751 1.96467 17.7104 4.37892 17.7104H45.4434C47.8577 17.7104 49.8223 19.6751 49.8223 22.0894Z" fill="#8C466A"/>
<path d="M49.8223 22.0894V33.7665L24.9111 36.1019V17.7104H45.4434C47.8576 17.7104 49.8223 19.6751 49.8223 22.0894Z" fill="#66334D"/>
<path d="M49.8223 33.7661V45.4432C49.8223 47.8575 47.8577 49.8221 45.4434 49.8221H4.37892C1.96467 49.8221 0 47.8575 0 45.4432V33.7661H49.8223Z" fill="#FF8FB8"/>
<path d="M49.8223 33.7661V45.4432C49.8223 47.8575 47.8576 49.8221 45.4434 49.8221H24.9111V33.7661H49.8223Z" fill="#FF5F96"/>
<path d="M24.9113 23.5488C19.2771 23.5488 14.6938 28.1321 14.6938 33.7663C14.6938 39.3898 19.2684 43.9838 24.9113 43.9838C30.5572 43.9838 35.1288 39.3879 35.1288 33.7663C35.1288 28.1321 30.5455 23.5488 24.9113 23.5488Z" fill="#FFF2FB"/>
<path d="M35.1286 33.7663C35.1286 39.3879 30.557 43.9838 24.9111 43.9838V23.5488C30.5453 23.5488 35.1286 28.1321 35.1286 33.7663Z" fill="#FFDFEA"/>
<path d="M24.9111 29.3872C22.4969 29.3872 20.5322 31.3519 20.5322 33.7661C20.5322 36.1745 22.4911 38.145 24.9111 38.145C27.3293 38.145 29.2901 36.1765 29.2901 33.7661C29.2901 31.3519 27.3254 29.3872 24.9111 29.3872Z" fill="#FFDFEA"/>
<path d="M29.29 33.7661C29.29 36.1765 27.3293 38.145 24.9111 38.145V29.3872C27.3254 29.3872 29.29 31.3519 29.29 33.7661Z" fill="#FFBFBF"/>
<path d="M7.39567 26.4681C8.20181 26.4681 8.85531 25.8146 8.85531 25.0085C8.85531 24.2023 8.20181 23.5488 7.39567 23.5488C6.58954 23.5488 5.93604 24.2023 5.93604 25.0085C5.93604 25.8146 6.58954 26.4681 7.39567 26.4681Z" fill="#97DE3D"/>
<path d="M42.4268 26.4681H39.5075C38.7014 26.4681 38.0479 25.8146 38.0479 25.0085C38.0479 24.2024 38.7014 23.5488 39.5075 23.5488H42.4268C43.2329 23.5488 43.8864 24.2024 43.8864 25.0085C43.8864 25.8146 43.2329 26.4681 42.4268 26.4681Z" fill="#59C36A"/>
<path d="M26.3709 1.45964V4.37892C26.3709 5.18464 25.717 5.83856 24.9113 5.83856C24.1056 5.83856 23.4517 5.18464 23.4517 4.37892V1.45964C23.4517 0.653918 24.1056 0 24.9113 0C25.717 0 26.3709 0.653918 26.3709 1.45964Z" fill="#FFE580"/>
<path d="M26.3708 1.45964V4.37892C26.3708 5.18464 25.7169 5.83855 24.9111 5.83855V0C25.7169 0 26.3708 0.653918 26.3708 1.45964Z" fill="#FFCC66"/>
<path d="M28.6853 7.90265C28.1153 7.33261 28.1153 6.40847 28.6853 5.83843L30.7496 3.77421C31.3195 3.20417 32.2438 3.20417 32.8138 3.77421C33.3838 4.34425 33.3838 5.26839 32.8138 5.83843L30.7496 7.90265C30.1796 8.47269 29.2554 8.47269 28.6853 7.90265Z" fill="#FFCC66"/>
<path d="M19.0727 7.90265L17.0085 5.83843C16.4386 5.26839 16.4386 4.34425 17.0085 3.77421C17.5785 3.20417 18.5026 3.20417 19.0727 3.77421L21.137 5.83843C21.7069 6.40847 21.7069 7.33261 21.137 7.90265C20.567 8.47259 19.6429 8.47278 19.0727 7.90265Z" fill="#FFE580"/>
</g>
<defs>
<clipPath id="clip0_198_8268">
<rect width="49.8223" height="49.8223" fill="white"/>
</clipPath>
</defs>
</svg>
