<svg width="77" height="84" viewBox="0 0 77 84" fill="none" xmlns="http://www.w3.org/2000/svg">
<path d="M3.388 75H5.67V66.544H8.764V64.64H0.308V66.544H3.388V75ZM9.86114 75.112C10.9671 75.112 11.7791 74.678 12.4651 73.908C12.4651 74.328 12.5351 74.692 12.6331 75H14.8731C14.7191 74.622 14.6631 74.076 14.6631 73.18V70.31C14.6631 68.392 13.8231 67.384 11.7791 67.384C9.91714 67.384 8.79714 68.042 8.05514 68.714L9.00714 70.002C9.69314 69.47 10.5051 69.078 11.4571 69.078C12.1851 69.078 12.4651 69.428 12.4651 69.974V70.156C9.18914 70.422 7.73314 71.374 7.73314 73.096C7.73314 74.37 8.71314 75.112 9.86114 75.112ZM10.7571 73.418C10.2671 73.418 9.93114 73.18 9.93114 72.704C9.93114 72.018 10.6871 71.57 12.4651 71.388V72.774C12.0871 73.152 11.5411 73.418 10.7571 73.418ZM16.3032 75H18.5572V72.984L19.4672 71.962L21.1192 75H23.4432L20.8672 70.324L23.3032 67.538H20.8812L18.5572 70.324V64.64H16.3032V75ZM27.4982 75.154C28.8002 75.154 29.8782 74.776 30.7462 74.034L29.8782 72.69C29.3742 73.152 28.5482 73.586 27.6662 73.586C26.7282 73.586 26.0422 73.11 25.9302 71.878H30.8722V71.542C30.8722 68.154 28.9822 67.384 27.4422 67.384C25.9022 67.384 23.6902 68.378 23.6902 71.276C23.6902 74.16 25.5522 75.154 27.4982 75.154ZM25.9582 70.548C26.1262 69.456 26.7282 68.994 27.4282 68.994C28.2682 68.994 28.7442 69.498 28.8562 70.548H25.9582ZM36.146 75H38.414V71.318H39.884C41.956 71.318 44.14 70.744 44.14 67.958C44.14 65.228 42.124 64.64 39.912 64.64H36.146V75ZM38.414 69.554V66.502H39.968C41.396 66.502 41.914 67.048 41.914 68.014C41.914 69.008 41.382 69.554 39.968 69.554H38.414ZM45.397 75H47.651V69.988C48.155 69.554 48.673 69.246 49.289 69.246C49.905 69.246 50.157 69.596 50.157 70.268V75H52.411V69.554C52.411 68.014 51.501 67.384 50.227 67.384C48.925 67.384 48.099 68.126 47.651 68.714V64.64H45.397V75ZM57.4673 75.154C59.2733 75.154 61.2753 74.174 61.2753 71.276C61.2753 68.35 59.2733 67.384 57.4673 67.384C55.6473 67.384 53.6453 68.35 53.6453 71.276C53.6453 74.174 55.6613 75.154 57.4673 75.154ZM57.4673 73.572C56.3193 73.572 55.8993 72.536 55.8993 71.29C55.8993 69.946 56.3893 69.036 57.4673 69.036C58.5873 69.036 59.0213 70.044 59.0213 71.29C59.0213 72.648 58.5313 73.572 57.4673 73.572ZM65.7185 75.098C66.2085 75.098 67.0345 75.028 67.2025 74.986V73.376C67.0485 73.432 66.7125 73.46 66.4605 73.46C65.6485 73.46 65.4245 73.208 65.4245 72.41V69.176H67.3425V67.538H65.4245V64.976H63.1845V67.538H61.9385V69.176H63.1845V72.9C63.1845 74.3 63.5065 75.098 65.7185 75.098ZM71.9731 75.154C73.7791 75.154 75.7811 74.174 75.7811 71.276C75.7811 68.35 73.7791 67.384 71.9731 67.384C70.1531 67.384 68.1511 68.35 68.1511 71.276C68.1511 74.174 70.1671 75.154 71.9731 75.154ZM71.9731 73.572C70.8251 73.572 70.4051 72.536 70.4051 71.29C70.4051 69.946 70.8951 69.036 71.9731 69.036C73.0931 69.036 73.5271 70.044 73.5271 71.29C73.5271 72.648 73.0371 73.572 71.9731 73.572Z" fill="black"/>
<g clip-path="url(#clip0_182_2404)">
<path d="M21.3957 20.6295C20.5896 20.6295 19.936 19.976 19.936 19.1699V16.2506C19.936 15.4445 20.5896 14.791 21.3957 14.791C22.2018 14.791 22.8553 15.4445 22.8553 16.2506V19.1699C22.8553 19.976 22.2018 20.6295 21.3957 20.6295Z" fill="#66334D"/>
<path d="M49.1288 16.2506V19.1699C49.1288 19.9756 48.4749 20.6295 47.6692 20.6295H30.1535C29.3478 20.6295 28.6938 19.9756 28.6938 19.1699V16.2506C28.6938 13.8364 30.6585 11.8717 33.0728 11.8717H44.7499C47.1641 11.8717 49.1288 13.8364 49.1288 16.2506Z" fill="#66334D"/>
<path d="M49.1286 16.2506V19.1699C49.1286 19.9756 48.4747 20.6295 47.669 20.6295H38.9111V11.8717H44.7497C47.1639 11.8717 49.1286 13.8364 49.1286 16.2506Z" fill="#66334D"/>
<path d="M49.1286 16.2507V19.17C49.1286 19.9757 48.4747 20.6296 47.669 20.6296H38.9111V11.8718H44.7497C47.1639 11.8718 49.1286 13.8364 49.1286 16.2507Z" fill="#4D2739"/>
<path d="M63.8223 22.0892V33.7663L38.9112 36.1017L14 33.7663V22.0892C14 19.6749 15.9647 17.7103 18.3789 17.7103H59.4434C61.8577 17.7103 63.8223 19.6749 63.8223 22.0892Z" fill="#8C466A"/>
<path d="M63.8223 22.0892V33.7663L38.9111 36.1017V17.7103H59.4434C61.8576 17.7103 63.8223 19.6749 63.8223 22.0892Z" fill="#66334D"/>
<path d="M63.8223 33.7663V45.4434C63.8223 47.8576 61.8577 49.8223 59.4434 49.8223H18.3789C15.9647 49.8223 14 47.8576 14 45.4434V33.7663H63.8223Z" fill="#FF8FB8"/>
<path d="M63.8223 33.7663V45.4434C63.8223 47.8576 61.8576 49.8223 59.4434 49.8223H38.9111V33.7663H63.8223Z" fill="#FF5F96"/>
<path d="M38.9113 23.5488C33.2771 23.5488 28.6938 28.1321 28.6938 33.7663C28.6938 39.3898 33.2684 43.9838 38.9113 43.9838C44.5572 43.9838 49.1288 39.3879 49.1288 33.7663C49.1288 28.1321 44.5455 23.5488 38.9113 23.5488Z" fill="#FFF2FB"/>
<path d="M49.1286 33.7663C49.1286 39.3879 44.557 43.9838 38.9111 43.9838V23.5488C44.5453 23.5488 49.1286 28.1321 49.1286 33.7663Z" fill="#FFDFEA"/>
<path d="M38.9111 29.3874C36.4969 29.3874 34.5322 31.3521 34.5322 33.7663C34.5322 36.1747 36.4911 38.1452 38.9111 38.1452C41.3293 38.1452 43.2901 36.1767 43.2901 33.7663C43.2901 31.3521 41.3254 29.3874 38.9111 29.3874Z" fill="#FFDFEA"/>
<path d="M43.29 33.7663C43.29 36.1767 41.3293 38.1452 38.9111 38.1452V29.3874C41.3254 29.3874 43.29 31.3521 43.29 33.7663Z" fill="#FFBFBF"/>
<path d="M21.3957 26.4681C22.2018 26.4681 22.8553 25.8146 22.8553 25.0085C22.8553 24.2023 22.2018 23.5488 21.3957 23.5488C20.5895 23.5488 19.936 24.2023 19.936 25.0085C19.936 25.8146 20.5895 26.4681 21.3957 26.4681Z" fill="#97DE3D"/>
<path d="M56.4268 26.4681H53.5075C52.7014 26.4681 52.0479 25.8146 52.0479 25.0085C52.0479 24.2024 52.7014 23.5488 53.5075 23.5488H56.4268C57.2329 23.5488 57.8864 24.2024 57.8864 25.0085C57.8864 25.8146 57.2329 26.4681 56.4268 26.4681Z" fill="#59C36A"/>
<path d="M40.3709 1.45964V4.37892C40.3709 5.18464 39.717 5.83856 38.9113 5.83856C38.1056 5.83856 37.4517 5.18464 37.4517 4.37892V1.45964C37.4517 0.653918 38.1056 0 38.9113 0C39.717 0 40.3709 0.653918 40.3709 1.45964Z" fill="#FFE580"/>
<path d="M40.3708 1.45964V4.37892C40.3708 5.18464 39.7169 5.83855 38.9111 5.83855V0C39.7169 0 40.3708 0.653918 40.3708 1.45964Z" fill="#FFCC66"/>
<path d="M42.6853 7.90277C42.1153 7.33273 42.1153 6.40859 42.6853 5.83855L44.7496 3.77433C45.3195 3.20429 46.2438 3.20429 46.8138 3.77433C47.3838 4.34437 47.3838 5.26851 46.8138 5.83855L44.7496 7.90277C44.1796 8.47281 43.2554 8.47281 42.6853 7.90277Z" fill="#FFCC66"/>
<path d="M33.0727 7.90277L31.0085 5.83855C30.4386 5.26851 30.4386 4.34437 31.0085 3.77433C31.5785 3.20429 32.5026 3.20429 33.0727 3.77433L35.137 5.83855C35.7069 6.40859 35.7069 7.33273 35.137 7.90277C34.567 8.47271 33.6429 8.47291 33.0727 7.90277Z" fill="#FFE580"/>
</g>
<defs>
<clipPath id="clip0_182_2404">
<rect width="49.8223" height="49.8223" fill="white" transform="translate(14)"/>
</clipPath>
</defs>
</svg>
