<svg width="20" height="20" viewBox="0 0 20 20" fill="none" xmlns="http://www.w3.org/2000/svg">
<path d="M10.02 0C4.21 0 0 4.74 0 10C0 11.68 0.49 13.41 1.35 14.99C1.51 15.25 1.53 15.58 1.42 15.89L0.75 18.13C0.6 18.67 1.06 19.07 1.57 18.91L3.59 18.31C4.14 18.13 4.57 18.36 5.081 18.67C6.541 19.53 8.36 19.97 10 19.97C14.96 19.97 20 16.14 20 9.97C20 4.65 15.7 0 10.02 0Z" fill="url(#paint0_linear_18405_154)"/>
<path fill-rule="evenodd" clip-rule="evenodd" d="M9.98073 11.2901C9.27073 11.2801 8.70073 10.7101 8.70073 10.0001C8.70073 9.30011 9.28073 8.72011 9.98073 8.73011C10.6907 8.73011 11.2607 9.30011 11.2607 10.0101C11.2607 10.7101 10.6907 11.2901 9.98073 11.2901ZM5.37033 11.2901C4.67033 11.2901 4.09033 10.7101 4.09033 10.0101C4.09033 9.30011 4.66033 8.73011 5.37033 8.73011C6.08033 8.73011 6.65033 9.30011 6.65033 10.0101C6.65033 10.7101 6.08033 11.2801 5.37033 11.2901ZM13.3105 10.0101C13.3105 10.7101 13.8805 11.2901 14.5905 11.2901C15.3005 11.2901 15.8705 10.7101 15.8705 10.0101C15.8705 9.30011 15.3005 8.73011 14.5905 8.73011C13.8805 8.73011 13.3105 9.30011 13.3105 10.0101Z" fill="white"/>
<defs>
<linearGradient id="paint0_linear_18405_154" x1="-2.83611e-08" y1="-1.22623" x2="23.0865" y2="2.35606" gradientUnits="userSpaceOnUse">
<stop stop-color="#53E88B"/>
<stop offset="1" stop-color="#15BE77"/>
</linearGradient>
</defs>
</svg>
