<svg width="50" height="50" viewBox="0 0 50 50" fill="none" xmlns="http://www.w3.org/2000/svg">
<g clip-path="url(#clip0_198_8258)">
<path d="M22.3972 44.788C17.5163 44.788 13.5437 40.8153 13.5437 35.9344V6.28906L3.48019 8.59295C0.992829 9.24711 -0.498593 11.8115 0.159387 14.3218L8.7879 46.5376C9.36082 48.621 11.2753 49.9999 13.3293 49.9999C13.7145 49.9999 14.1063 49.9519 14.4938 49.85L35.492 44.788H22.3972Z" fill="#B0BEC5"/>
<path d="M49.9993 5.72882V35.9345C49.9993 39.1008 47.4368 41.6633 44.2705 41.6633H22.3973C20.2517 41.6633 18.3769 40.4759 17.3978 38.7259C16.9393 37.9134 16.6685 36.9552 16.6685 35.9345V5.72882C16.6685 2.56212 19.231 0 22.3973 0H44.2705C47.4368 0 49.9993 2.56212 49.9993 5.72882Z" fill="#ECEFF1"/>
<path d="M31.2509 14.5821C31.2509 16.8833 29.3856 18.7485 27.0844 18.7485C24.7836 18.7485 22.918 16.8833 22.918 14.5821C22.918 12.2812 24.7836 10.416 27.0844 10.416C29.3856 10.416 31.2509 12.2812 31.2509 14.5821Z" fill="#FFC107"/>
<path d="M49.9994 24.8729V35.9346C49.9994 39.1009 47.4369 41.6634 44.2706 41.6634H22.3975C20.2519 41.6634 18.3771 40.476 17.3979 38.7259L38.0421 18.0817C39.4584 16.6655 41.7917 16.6655 43.2083 18.0817L49.9994 24.8729Z" fill="#388E3C"/>
<path d="M43.8745 41.6635H22.3973C20.2517 41.6635 18.3769 40.4761 17.3978 38.726C16.9393 37.9136 16.6685 36.9554 16.6685 35.9347V31.1225L22.4183 25.373C23.8345 23.9564 26.1678 23.9564 27.5844 25.373L43.8745 41.6635Z" fill="#4CAF50"/>
</g>
<defs>
<clipPath id="clip0_198_8258">
<rect width="50" height="50" fill="white"/>
</clipPath>
</defs>
</svg>
