<svg width="88" height="84" viewBox="0 0 88 84" fill="none" xmlns="http://www.w3.org/2000/svg">
<path d="M1.064 75H3.346V70.87H6.594V69.064H3.346V66.544H7.91V64.64H1.064V75ZM8.22314 75H10.4771V70.366C10.8971 69.82 11.5691 69.344 12.4651 69.344C12.6051 69.344 12.9691 69.372 13.0531 69.386L13.0811 67.384H13.0111C11.6111 67.384 10.8971 68.154 10.4911 68.784H10.4771V67.538H8.22314V75ZM17.354 75.154C19.16 75.154 21.162 74.174 21.162 71.276C21.162 68.35 19.16 67.384 17.354 67.384C15.534 67.384 13.532 68.35 13.532 71.276C13.532 74.174 15.548 75.154 17.354 75.154ZM17.354 73.572C16.206 73.572 15.786 72.536 15.786 71.29C15.786 69.946 16.276 69.036 17.354 69.036C18.474 69.036 18.908 70.044 18.908 71.29C18.908 72.648 18.418 73.572 17.354 73.572ZM22.4692 75H24.7232V69.988C25.2272 69.554 25.6752 69.246 26.2352 69.246C26.8932 69.246 27.0472 69.596 27.0472 70.268V75H29.3012V69.988C29.7912 69.554 30.2392 69.246 30.7992 69.246C31.4572 69.246 31.6112 69.596 31.6112 70.268V75H33.8652V69.666C33.8652 68.336 33.1932 67.384 31.6812 67.384C30.5052 67.384 29.6652 68.14 29.2172 68.714C29.0072 67.902 28.4192 67.384 27.1732 67.384C25.9972 67.384 25.1712 68.126 24.7232 68.714V67.538H22.4692V75ZM43.528 75.196C45.096 75.196 46.006 74.188 46.23 73.572H46.258V75H48.092V69.806H44.116V71.5H45.922C45.712 72.648 44.928 73.362 43.794 73.362C42.688 73.362 41.288 72.634 41.288 69.736C41.288 66.824 42.856 66.334 43.696 66.334C44.718 66.334 45.376 66.894 45.81 68.336L47.896 67.762C47.238 65.228 45.67 64.444 43.71 64.444C40.798 64.444 38.992 66.53 38.992 69.778C38.992 72.9 40.392 75.196 43.528 75.196ZM51.5604 75.112C52.6664 75.112 53.4784 74.678 54.1644 73.908C54.1644 74.328 54.2344 74.692 54.3324 75H56.5724C56.4184 74.622 56.3624 74.076 56.3624 73.18V70.31C56.3624 68.392 55.5224 67.384 53.4784 67.384C51.6164 67.384 50.4964 68.042 49.7544 68.714L50.7064 70.002C51.3924 69.47 52.2044 69.078 53.1564 69.078C53.8844 69.078 54.1644 69.428 54.1644 69.974V70.156C50.8884 70.422 49.4324 71.374 49.4324 73.096C49.4324 74.37 50.4124 75.112 51.5604 75.112ZM52.4564 73.418C51.9664 73.418 51.6304 73.18 51.6304 72.704C51.6304 72.018 52.3864 71.57 54.1644 71.388V72.774C53.7864 73.152 53.2404 73.418 52.4564 73.418ZM58.0864 75H60.3264V64.64H58.0864V75ZM62.2017 75H64.4417V64.64H62.2017V75ZM69.6349 75.154C70.9369 75.154 72.0149 74.776 72.8829 74.034L72.0149 72.69C71.5109 73.152 70.6849 73.586 69.8029 73.586C68.8649 73.586 68.1789 73.11 68.0669 71.878H73.0089V71.542C73.0089 68.154 71.1189 67.384 69.5789 67.384C68.0389 67.384 65.8269 68.378 65.8269 71.276C65.8269 74.16 67.6889 75.154 69.6349 75.154ZM68.0949 70.548C68.2629 69.456 68.8649 68.994 69.5649 68.994C70.4049 68.994 70.8809 69.498 70.9929 70.548H68.0949ZM74.313 75H76.567V70.366C76.987 69.82 77.659 69.344 78.555 69.344C78.695 69.344 79.059 69.372 79.143 69.386L79.171 67.384H79.101C77.701 67.384 76.987 68.154 76.581 68.784H76.567V67.538H74.313V75ZM81.614 77.856C83.112 77.856 83.798 77.072 84.302 75.784L87.438 67.538H85.254L83.602 72.382H83.574L81.936 67.538H79.612L82.468 75.042L82.328 75.406C82.146 75.868 81.866 76.05 81.376 76.05C80.704 76.05 80.172 75.91 79.962 75.854L79.486 77.59C79.878 77.702 80.508 77.856 81.614 77.856Z" fill="black"/>
<g clip-path="url(#clip0_182_2403)">
<path d="M41.3972 44.7881C36.5163 44.7881 32.5437 40.8154 32.5437 35.9345V6.28915L22.4802 8.59304C19.9928 9.24721 18.5014 11.8116 19.1594 14.3219L27.7879 46.5377C28.3608 48.6211 30.2753 50 32.3293 50C32.7145 50 33.1063 49.952 33.4938 49.8501L54.492 44.7881H41.3972Z" fill="#B0BEC5"/>
<path d="M68.9993 5.72882V35.9345C68.9993 39.1008 66.4368 41.6633 63.2705 41.6633H41.3973C39.2517 41.6633 37.3769 40.4759 36.3978 38.7259C35.9393 37.9134 35.6685 36.9552 35.6685 35.9345V5.72882C35.6685 2.56212 38.231 0 41.3973 0H63.2705C66.4368 0 68.9993 2.56212 68.9993 5.72882Z" fill="#ECEFF1"/>
<path d="M50.2509 14.582C50.2509 16.8832 48.3856 18.7485 46.0844 18.7485C43.7836 18.7485 41.918 16.8832 41.918 14.582C41.918 12.2812 43.7836 10.416 46.0844 10.416C48.3856 10.416 50.2509 12.2812 50.2509 14.582Z" fill="#FFC107"/>
<path d="M68.9994 24.8728V35.9345C68.9994 39.1008 66.4369 41.6633 63.2706 41.6633H41.3975C39.2519 41.6633 37.3771 40.4759 36.3979 38.7259L57.0421 18.0817C58.4584 16.6654 60.7917 16.6654 62.2083 18.0817L68.9994 24.8728Z" fill="#388E3C"/>
<path d="M62.8745 41.6633H41.3973C39.2517 41.6633 37.3769 40.4759 36.3978 38.7259C35.9393 37.9134 35.6685 36.9552 35.6685 35.9345V31.1223L41.4183 25.3729C42.8345 23.9562 45.1678 23.9562 46.5844 25.3729L62.8745 41.6633Z" fill="#4CAF50"/>
</g>
<defs>
<clipPath id="clip0_182_2403">
<rect width="50" height="50" fill="white" transform="translate(19)"/>
</clipPath>
</defs>
</svg>
