<svg width="375" height="384" viewBox="0 0 375 384" fill="none" xmlns="http://www.w3.org/2000/svg">
<path d="M8.84875 248.797C1.30544 153.496 81.4074 59.5637 175.328 52.1296C269.248 44.6956 342.467 78.4648 350.011 173.765C357.554 269.066 304.935 311.564 211.015 318.998C117.095 326.432 16.3921 344.097 8.84875 248.797Z" fill="#FBDF6A" fill-opacity="0.21"/>
<path d="M245.264 93.894C244.612 85.6597 251.533 77.5437 259.648 76.9013C267.763 76.259 274.089 79.1768 274.741 87.411C275.393 95.6453 270.846 99.3173 262.731 99.9596C254.616 100.602 245.915 102.128 245.264 93.894Z" fill="#F89945"/>
<path d="M15.6515 64.9405C3.81317 54.7072 2.88875 33.9206 13.5649 21.5699C24.2411 9.21923 37.0945 4.22197 48.9328 14.4552C60.7711 24.6885 59.1792 36.095 48.503 48.4457C37.8268 60.7964 27.4898 75.1737 15.6515 64.9405Z" fill="#FBDF6A" fill-opacity="0.21"/>
<path d="M361.79 306.124C372.855 317.189 368.689 341.569 353.279 356.978C337.87 372.388 317.415 374.646 310.737 368.26C304.059 361.874 304.377 343.644 319.787 328.235C335.196 312.825 350.725 295.059 361.79 306.124Z" fill="#FBDF6A" fill-opacity="0.21"/>
<path d="M62.3234 250.524C56.3513 255.94 45.9833 255.469 40.6789 249.619C35.3745 243.77 33.879 237.169 39.8511 231.754C45.8232 226.338 51.3525 227.638 56.6569 233.487C61.9613 239.337 68.2955 245.108 62.3234 250.524Z" fill="#FBD246"/>
<path d="M195.95 218.146C195.95 218.146 192.216 229.956 193.812 233.581C195.408 237.206 238.177 265.917 271.45 270.122C271.942 270.18 272.439 270.134 272.912 269.987C273.385 269.84 273.822 269.595 274.195 269.268C276.94 266.868 283.467 260.842 284.377 256.959C285.542 252.029 260.12 258.038 195.95 218.146Z" fill="#F89945"/>
<path d="M205.147 232.596C208.349 236.105 212.926 234.359 215.711 237.643C218.496 240.927 219.025 241.872 222.834 241.183C223.538 241.055 224.162 241.76 224.611 242.144C228.18 245.124 230.165 246.79 235.703 247.303C236.866 247.287 237.998 247.678 238.904 248.408C241.682 250.418 245.093 251.357 248.507 251.051C248.749 251.04 248.99 251.084 249.212 251.179C251.597 252.317 251.821 254.191 254.014 255.793C257.391 258.212 260.512 260.423 264.401 257.684C265.03 257.351 265.755 257.249 266.45 257.395C270.484 258.1 269.923 262.554 275.189 260.599C277.91 259.622 278.743 262.025 280.183 263.146C282.037 261.347 283.469 259.158 284.377 256.738C285.545 251.836 260.048 257.812 195.688 218.146C194.712 221.295 193.952 224.506 193.415 227.758C195.4 231.956 202.394 229.617 205.147 232.596Z" fill="#D77124"/>
<path opacity="0.55" d="M247.192 258.418C244.043 253.989 239.937 247.603 239.58 241.858C224.984 235.612 210.851 228.357 197.287 220.146C197.287 220.146 194.317 229.775 195.859 232.84C197.092 235.279 223.448 252.401 249.415 261.146C248.587 260.264 247.873 259.365 247.192 258.418Z" fill="#CD4200"/>
<path d="M244.047 214.258C244.047 214.258 205.896 201.461 202.355 204.66C198.813 207.859 196.189 216.065 198.008 219.537C199.827 223.008 236.513 240.044 242.325 243.244C264.603 255.529 282.294 253.833 283.293 254.137C284.291 254.441 293.885 247.147 290.81 238.301C287.945 229.998 250.55 217.761 244.047 214.258Z" fill="#BE5B2A"/>
<path d="M245.736 235.942C242.591 231.647 240.096 226.916 238.33 221.9C237.457 218.507 236.85 215.053 236.514 211.568C228.481 209.056 215.918 205.298 208.351 204.146C204.512 211.711 204.19 219.213 208.866 226.538C220.561 233.127 237.944 241.652 242.169 242.948C244.049 243.523 248.354 244.691 253.415 246.146C250.615 242.931 248.049 239.521 245.736 235.942Z" fill="#AE4D25"/>
<path d="M228.873 216.384C234.85 218.975 239.385 223.069 244.689 226.748C249.121 229.622 253.326 232.83 257.267 236.345C260.36 239.304 265.535 248.517 270.086 245.574C273.499 243.335 277.617 243.526 281.463 242.999C284.734 242.493 288.068 242.558 291.317 243.191C291.544 241.527 291.374 239.834 290.821 238.248C287.969 229.995 250.761 217.759 244.272 214.256C244.272 214.256 206.296 201.461 202.771 204.66C201.835 205.554 201.041 206.584 200.415 207.715C210.446 208.866 219.515 212.257 228.873 216.384Z" fill="#953E25"/>
<path d="M196.433 218.152C199.279 218.108 202.122 218.336 204.924 218.832C207.892 219.56 214.404 225.605 222.479 227.789C230.555 229.973 227.986 234.309 237.45 236.572C246.914 238.835 247.744 243.25 250.967 243.629C254.191 244.009 262.043 248.456 263.607 249.738C265.171 251.02 277.476 249.5 280.541 251.811C283.605 254.121 288.281 252.697 288.393 254.438C288.504 256.178 288.393 260.103 283.222 258.932C278.051 257.761 275.019 258.441 273.359 256.542C271.699 254.643 257.271 255.704 256.681 253.156C256.09 250.608 251.079 248.567 246.531 247.19C241.982 245.813 240.993 243.677 235.359 242.443C229.725 241.208 223.453 235.701 220.708 235.78C217.963 235.859 210.494 233.533 209.44 231.175C208.387 228.818 202.849 225.083 200.902 225.21C198.955 225.336 196.162 219.339 196.433 218.152Z" fill="#7BB027"/>
<path d="M202.284 216.812C202.284 216.684 202.284 216.539 202.46 216.716C202.983 216.593 203.521 216.55 204.057 216.588V216.443C204.711 216.556 205.446 216.443 206.069 216.443C206.062 216.406 206.062 216.368 206.069 216.331C207.396 216.834 208.75 217.262 210.125 217.614C211.354 218.272 212.616 220.053 210.987 220.984C210.236 221.401 209.39 221.112 209.071 222.139C209.003 222.534 209.021 222.939 209.122 223.327C209.224 223.714 209.408 224.075 209.661 224.385C211.191 225.595 212.929 226.514 214.787 227.096C216.209 227.594 219.115 228.701 220.057 226.888C220.44 226.422 219.77 225.7 219.929 225.091C220.051 224.755 220.266 224.461 220.549 224.245C220.832 224.029 221.172 223.899 221.526 223.871C222.314 224.187 223.142 224.392 223.985 224.481C224.965 224.976 225.992 225.369 227.051 225.652C227.922 226.092 228.764 226.585 229.574 227.128C229.989 227.658 230.389 228.316 230.836 228.733C231.283 229.15 231.411 230.61 230.644 231.252C230.181 231.637 229.494 231.38 229.047 231.476C228.493 231.643 227.957 231.869 227.45 232.15C227.383 232.423 227.374 232.707 227.423 232.983C227.473 233.26 227.58 233.523 227.738 233.754C227.882 233.899 227.977 233.915 228.089 234.188C230.181 234.91 231.874 236.658 234.029 237.156C234.147 237.279 234.293 237.371 234.455 237.424C234.616 237.477 234.788 237.49 234.956 237.461C235.419 237.754 235.925 237.97 236.457 238.102V237.942C236.507 238.016 236.58 238.073 236.664 238.102C236.68 238.075 236.688 238.045 236.688 238.014C236.688 237.983 236.68 237.953 236.664 237.926C238.261 237.926 236.169 235.776 235.978 235.247C235.291 233.418 237.574 233.642 238.74 233.899C241.678 234.685 245.718 236.354 247.363 239.177C247.227 239.718 246.889 240.186 246.42 240.484C245.95 240.783 245.385 240.889 244.84 240.782C244.505 240.942 243.802 241.07 243.371 241.295C243.371 241.295 243.211 241.648 243.148 241.744C243.294 241.99 243.471 242.217 243.674 242.418C244.042 243.108 245.271 243.397 245.766 243.637C245.859 243.703 245.961 243.751 246.07 243.782C246.332 243.966 246.617 244.117 246.916 244.231V244.071C247.331 244.279 248.194 244.391 248.513 243.782C249.79 243.076 248.736 240.3 251.116 241.279C252.473 241.824 253.974 243.349 255.427 242.482C256.481 242.643 257.28 242.595 258.046 243.365C258.525 245.707 256.577 245.803 254.852 246.573L254.677 246.67C254.677 246.862 254.533 247.055 254.469 247.247C254.405 247.44 254.549 247.456 254.565 247.568C254.581 247.527 254.581 247.481 254.565 247.44C254.741 248.114 256.162 249.205 256.705 249.044C257.966 250.504 260.473 248.579 261.783 247.905C262.644 247.385 263.567 246.975 264.529 246.686C265.599 246.445 266.222 247.023 267.116 246.975C268.196 247.736 269.003 248.828 269.416 250.087C269.719 251.13 269.416 252.814 270.789 253.103C274.286 255.574 278.486 249.894 282.079 249.782C282.314 249.756 282.552 249.776 282.779 249.842C283.006 249.909 283.218 250.02 283.402 250.169C283.586 250.318 283.739 250.503 283.852 250.712C283.965 250.921 284.035 251.15 284.059 251.387C284.187 252.301 283.516 253.087 283.628 253.97C283.664 254.185 283.743 254.392 283.861 254.575C283.979 254.759 284.134 254.917 284.315 255.039C284.495 255.16 284.699 255.244 284.913 255.283C285.128 255.323 285.348 255.318 285.56 255.269C286.566 255.061 286.885 254.018 287.7 253.585C288.164 253.315 288.703 253.203 289.235 253.268C289.768 253.332 290.265 253.568 290.652 253.941C291.04 254.314 291.296 254.803 291.382 255.335C291.469 255.866 291.382 256.412 291.133 256.89C290.501 257.76 289.694 258.487 288.764 259.024C287.834 259.56 286.802 259.893 285.736 260.002C284.624 260.797 283.282 261.197 281.919 261.141C281.562 261.08 281.223 260.936 280.931 260.721C280.638 260.507 280.398 260.227 280.231 259.903C280.064 259.58 279.974 259.222 279.968 258.858C279.961 258.494 280.039 258.133 280.195 257.804C280.61 256.601 281.712 254.964 280.706 253.921C280.454 253.742 280.17 253.615 279.869 253.546C279.568 253.477 279.257 253.469 278.953 253.521C278.649 253.573 278.358 253.685 278.097 253.85C277.836 254.015 277.61 254.23 277.432 254.483C276.667 255.266 276.007 256.145 275.468 257.098C274.866 257.902 274.131 258.597 273.296 259.152C273.057 259.152 273.041 259.152 272.945 259.264C270.118 259.264 268.362 256.424 268.713 253.52C268.266 252.349 267.691 249.814 266.014 251.916C265.529 252.658 265.158 253.469 264.913 254.323C264.457 255.031 264.051 255.771 263.699 256.537C262.965 257.05 262.105 257.352 261.213 257.409C260.32 257.465 259.429 257.275 258.637 256.857C256.609 255.94 254.849 254.515 253.527 252.718C252.409 251.354 251.435 250.312 252.681 248.691C253.032 248.21 253.958 247.408 253.942 246.702C253.91 246.299 253.728 245.923 253.432 245.649C253.136 245.376 252.748 245.224 252.345 245.226C250.413 244.279 249.711 246.83 248.705 248.001C248.021 248.693 247.137 249.151 246.18 249.309C245.222 249.468 244.24 249.319 243.371 248.884C242.014 248.386 237.878 246.525 238.852 244.616C239.267 243.766 240.561 243.718 241.072 243.012C241.302 242.549 241.374 242.023 241.276 241.515C241.178 241.007 240.915 240.546 240.529 240.204C240.018 239.61 237.702 238.215 237.702 239.771C237.495 240.172 237.702 240.862 237.59 241.375C237.393 241.899 237.227 242.435 237.095 242.98C236.409 243.268 236.01 244.103 235.499 244.488C234.855 244.981 234.085 245.281 233.279 245.354C233.099 245.331 232.916 245.331 232.736 245.354C230.41 244.389 228.339 242.895 226.684 240.99C226.098 240.343 225.638 239.593 225.327 238.776C225.119 237.733 225.981 236.995 225.949 235.968C225.949 234.22 222.899 231.845 222.277 234.364C221.973 235.648 222.66 236.546 222.021 237.846C221.606 238.664 221.127 239.45 220.105 239.45V239.546C215.187 238.856 220.217 233.401 217.374 231.38C216.464 230.738 214.069 229.968 213.031 230.578C211.434 231.508 213.398 233.434 211.434 234.236L211.051 234.107C208.959 233.674 206.26 231.54 206.611 229.054C206.755 228.091 207.857 227.449 207.873 226.535C207.69 225.658 207.175 224.887 206.436 224.385C206.214 224.103 205.919 223.89 205.584 223.768C205.248 223.646 204.885 223.621 204.536 223.695C203.466 223.871 203.45 224.481 203.498 225.46C203.625 227.786 203.37 228.973 201.214 230.161C200.301 230.044 199.421 229.742 198.628 229.273C197.834 228.805 197.144 228.178 196.599 227.433C195.865 226.15 196.599 223.968 196.599 222.62C196.424 221.593 194.252 220.791 193.406 220.599C189.845 218.465 191.346 212.464 195.657 214.598C197.153 215.633 198.366 217.029 199.186 218.657C199.985 219.78 201.981 221.866 203.242 219.973C204.248 218.497 202.252 217.871 202.348 216.523C202.444 216.539 202.06 216.844 202.284 216.812Z" fill="#9FCC29"/>
<path d="M217.823 198.524C217.823 198.524 203.813 196.767 197.415 200.834L197.831 203.413C197.831 203.413 220.35 207.59 234.825 216.83C249.299 226.071 264.285 237.748 268.3 242.146C268.3 242.146 285.189 234.235 299.279 241.529L300.415 239.14C297.93 235.35 294.57 232.199 290.611 229.947C284.485 226.656 239.863 213.428 217.823 198.524Z" fill="#FFCF08"/>
<path d="M274.697 237.675C271.498 238.205 268.875 238.784 268.875 238.784C254.481 227.01 243.829 217.873 232.234 212.372C221.106 207.031 209.43 202.931 197.415 200.146L197.831 202.768C197.831 202.768 220.35 207.015 234.825 216.409C249.299 225.803 264.285 237.675 268.3 242.146C268.3 242.146 285.189 234.103 299.279 241.519L300.415 239.09C288.532 233.975 278.903 236.951 274.697 237.675Z" fill="#EFA708"/>
<path d="M294.292 224.123C294.732 224.635 295.055 225.234 295.239 225.88C295.423 226.525 295.463 227.202 295.358 227.865C294.776 229.68 292.612 232.896 291.417 233.135C288.832 233.629 242.379 217.787 209.558 198.107C209.558 198.107 208.702 197.009 211.174 190.146C211.174 190.146 219.508 198.521 256.302 214.029C285.489 226.241 294.292 224.123 294.292 224.123Z" fill="#E72124"/>
<g style="mix-blend-mode:multiply" opacity="0.55">
<path d="M251.77 216.543C259.271 219.684 266.929 222.437 274.716 224.79C281.58 227.099 287.517 228.898 294.381 227.831C294.458 227.188 294.403 226.536 294.219 225.915C294.034 225.293 293.725 224.716 293.309 224.217C293.309 224.217 284.589 226.271 255.723 214.028C219.272 198.584 211.015 190.146 211.015 190.146C210.325 191.95 209.79 193.809 209.415 195.703C221.912 205.303 237.625 210.095 251.77 216.543Z" fill="#C42124"/>
</g>
<path d="M267.723 177.674C259.947 174.144 251.747 171.631 243.327 170.197C237.67 169.071 231.871 168.848 226.144 169.538C220.963 170.255 216.14 172.584 212.36 176.195C210.736 178.019 209.563 180.199 208.937 182.559C208.31 184.919 208.247 187.392 208.753 189.781C210.363 198.157 281.717 228.465 294.922 226.005C294.922 226.005 300.51 223.464 301.363 215.522C301.766 211.358 299.753 206.357 297.724 202.82C294.36 197.284 290.042 192.385 284.97 188.35C279.709 184.06 273.911 180.471 267.723 177.674Z" fill="#F89945"/>
<path d="M282.4 214.288C271.004 212.7 261.642 207.126 251.296 202.553C240.659 197.789 229.295 193.883 219.788 187.087C215.575 184.054 212.718 181.084 212.072 177.146C210.55 178.939 209.461 181.048 208.885 183.314C208.309 185.58 208.262 187.944 208.747 190.231C210.361 198.504 281.884 228.436 295.12 226.007C296.891 225.01 298.39 223.605 299.486 221.912C300.583 220.219 301.245 218.289 301.415 216.289C295.152 216.971 289.18 215.288 282.4 214.288Z" fill="#E8761F"/>
<g style="mix-blend-mode:screen" opacity="0.32">
<path d="M268.21 181.835C266.229 179.931 260.12 176.141 257.839 179.46C255.875 182.324 261.268 185.747 263.099 186.76C265.18 187.93 268.759 189.101 270.058 186.935C271.04 185.276 269.858 183.389 268.21 181.835Z" fill="#FDE5C1"/>
</g>
<g style="mix-blend-mode:screen" opacity="0.32">
<path d="M281.586 196.385C276.756 193.487 270.982 191.147 265.852 192.58C261.636 193.726 263.697 196.974 266.01 199.107C269.61 202.496 273.848 205.117 278.471 206.812C281.523 207.847 287.046 209.742 288.32 205.539C288.447 204.897 288.447 204.235 288.32 203.593C288.193 202.951 287.942 202.341 287.581 201.797C285.921 199.642 283.89 197.809 281.586 196.385Z" fill="#FDE5C1"/>
</g>
<path d="M245.415 179.584C245.415 180.428 244.347 181.146 242.967 181.146C241.588 181.146 240.445 180.553 240.416 179.709C240.386 178.865 241.499 178.146 242.878 178.146C244.258 178.146 245.4 178.756 245.415 179.584Z" fill="#FBD198"/>
<path d="M260.415 199.592C260.415 200.431 259.115 201.146 257.46 201.146C255.804 201.146 254.433 200.54 254.415 199.701C254.397 198.861 255.715 198.146 257.371 198.146C259.026 198.146 260.379 198.721 260.415 199.592Z" fill="#FBD198"/>
<path d="M277.415 205.584C277.415 206.428 276.347 207.146 274.952 207.146C273.558 207.146 272.445 206.537 272.416 205.709C272.386 204.881 273.499 204.146 274.878 204.146C276.258 204.146 277.4 204.756 277.415 205.584Z" fill="#FBD198"/>
<path d="M231.415 178.584C231.415 179.428 230.347 180.146 228.967 180.146C227.588 180.146 226.445 179.537 226.416 178.709C226.386 177.881 227.499 177.146 228.878 177.146C230.258 177.146 231.4 177.693 231.415 178.584Z" fill="#FBD198"/>
<path d="M296.415 207.584C296.415 208.428 295.133 209.146 293.46 209.146C291.787 209.146 290.451 208.537 290.416 207.709C290.38 206.881 291.715 206.146 293.371 206.146C295.026 206.146 296.326 206.771 296.415 207.584Z" fill="#FBD198"/>
<path d="M267.038 197.915C266.408 198.506 265.149 197.915 264.259 196.715C263.368 195.516 263.138 193.969 263.783 193.378C264.428 192.787 265.671 193.378 266.577 194.577C267.483 195.777 267.682 197.341 267.038 197.915Z" fill="#FBD198"/>
<path d="M284.389 200.224C284.154 200.998 282.577 201.349 281 201.027C279.423 200.706 278.209 199.844 278.444 199.069C278.68 198.295 280.257 197.944 281.834 198.265C283.411 198.587 284.607 199.464 284.389 200.224Z" fill="#FBD198"/>
<path d="M240.072 190.962C239.422 191.433 238.171 190.962 237.259 190.005C236.347 189.049 236.146 187.802 236.795 187.331C237.444 186.859 238.696 187.331 239.592 188.301C240.489 189.271 240.659 190.491 240.072 190.962Z" fill="#FBD198"/>
<path d="M253.082 191.987C252.474 192.471 251.226 191.815 250.306 190.519C249.387 189.223 249.14 187.789 249.748 187.305C250.356 186.822 251.604 187.478 252.524 188.774C253.443 190.07 253.69 191.504 253.082 191.987Z" fill="#FBD198"/>
<path d="M225.233 184.85C224.704 185.426 223.259 185.138 221.972 184.194C220.685 183.25 220.086 182.018 220.597 181.443C221.108 180.867 222.571 181.155 223.858 182.098C225.145 183.042 225.744 184.274 225.233 184.85Z" fill="#FBD198"/>
<path d="M277.02 190.984C276.361 191.408 275.111 190.984 274.222 189.91C273.333 188.835 273.152 187.733 273.811 187.309C274.469 186.885 275.719 187.309 276.608 188.383C277.497 189.457 277.678 190.56 277.02 190.984Z" fill="#FBD198"/>
<path d="M292.03 200.944C291.372 201.474 290.121 200.944 289.233 199.601C288.344 198.258 288.146 196.879 288.805 196.349C289.463 195.819 290.73 196.349 291.602 197.692C292.474 199.035 292.688 200.413 292.03 200.944Z" fill="#FBD198"/>
<path d="M253.02 178.944C252.361 179.472 251.111 178.944 250.222 177.606C249.333 176.268 249.152 174.877 249.811 174.348C250.469 173.82 251.719 174.348 252.608 175.687C253.497 177.025 253.678 178.416 253.02 178.944Z" fill="#FBD198"/>
<g style="mix-blend-mode:multiply" opacity="0.35">
<path d="M301.334 214.24C289.201 214.524 275.554 210.338 264.904 206.5C257.202 203.736 248.792 200.734 242.54 195.332C236.289 189.93 233.469 182.854 238.077 175.525C239.28 173.673 240.943 172.151 242.911 171.102C237.389 170.061 231.736 169.869 226.154 170.533C220.97 171.238 216.144 173.526 212.362 177.073C210.737 178.865 209.564 181.007 208.937 183.325C208.31 185.643 208.247 188.074 208.753 190.42C210.364 198.649 281.757 228.424 294.969 226.007C294.969 226.007 300.56 223.512 301.414 215.709C301.42 215.218 301.393 214.727 301.334 214.24Z" fill="#D48745"/>
</g>
<g style="mix-blend-mode:multiply" opacity="0.32">
<path d="M254.863 204.442L251.028 202.667C240.678 197.978 229.662 193.908 220.303 187.395C216.127 184.496 213.283 181.696 212.487 178.146C211.112 179.698 210.154 181.575 209.705 183.601C209.256 185.627 209.33 187.734 209.92 189.723C211.041 193.94 233.642 205.338 255.415 214.146C254.79 210.952 254.604 207.687 254.863 204.442Z" fill="#BA773D"/>
</g>
<path d="M182.415 260.8C182.415 260.8 145.577 230.266 126.063 238.607C106.549 246.947 99.0778 250.322 94.7145 260.591C92.0418 266.858 90.3673 287.911 88.9505 294.741C87.5336 301.57 82.5102 316.516 103.86 313.848C125.209 311.181 161.13 261.041 182.415 260.8Z" fill="#F89945"/>
<g style="mix-blend-mode:multiply" opacity="0.35">
<path d="M143.799 238.163H142.834H142.705C142.576 238.51 142.334 238.801 142.018 238.99C141.702 239.178 141.331 239.252 140.967 239.199C134.805 238.568 130.67 239.992 124.765 242.079C121.901 243.083 117.186 245.833 114.033 245.073C113.912 245.024 113.798 244.959 113.695 244.879C112.987 245.073 112.279 245.251 111.603 245.494C106.374 247.257 105.167 249.798 102.818 254.668C101.209 258.034 97.7979 265.995 93.7593 268.196C93.9985 270.51 94.3529 272.811 94.8213 275.089C95.394 277.911 95.5027 280.808 95.1431 283.666C94.6282 286.756 93.2605 289.782 89.8173 289.669C89.6725 290.672 89.5438 291.578 89.415 292.404C90.743 294.743 91.5808 297.331 91.8768 300.009C92.0055 302.905 91.1045 305.786 91.3941 308.407C93.3571 309.621 93.8559 311.433 94.3547 313.601C97.4998 314.265 100.739 314.342 103.912 313.828C125.215 311.125 161.144 260.656 182.415 260.429C182.415 260.381 162.206 243.487 143.799 238.163Z" fill="#E09945"/>
</g>
<path d="M107.04 257.021C106.685 257.713 106.476 258.474 106.426 259.254C106.377 260.033 106.489 260.815 106.754 261.548C107.019 262.281 107.432 262.949 107.966 263.509C108.5 264.07 109.143 264.51 109.854 264.801C111.201 265.206 112.625 265.273 114.003 264.996C120.49 264.072 126.292 260.603 132.111 257.556C137.93 254.509 144.273 251.754 150.775 252.402C152.556 252.58 154.305 253.018 156.101 253.05C157.9 253.199 159.683 252.616 161.061 251.429C162.402 249.768 163.158 247.697 163.208 245.546C163.51 243.293 163.7 240.684 162.158 239.063C161.204 238.074 159.79 237.669 158.804 236.713C157.807 235.44 157.008 234.019 156.435 232.499C155.533 230.926 154.172 229.679 152.542 228.932C150.912 228.186 149.094 227.976 147.341 228.333C146.61 228.495 145.752 229.03 145.911 229.776C146.069 230.521 147.071 230.586 147.802 230.44C148.534 230.294 149.392 230.116 149.885 230.732C150.378 231.348 149.885 232.353 149.106 232.547C148.369 232.728 147.596 232.689 146.88 232.434C142.552 231.411 138.06 231.333 133.701 232.207C132.954 232.305 132.24 232.583 131.618 233.017C131.314 233.246 131.088 233.566 130.971 233.932C130.854 234.298 130.853 234.692 130.966 235.059C131.507 236.34 133.701 236.372 133.907 237.75C133.931 238.094 133.847 238.436 133.667 238.727C133.487 239.019 133.22 239.244 132.906 239.371C132.275 239.604 131.602 239.692 130.935 239.63L125.02 239.517C124.035 238.761 122.893 238.245 121.682 238.009C121.074 237.907 120.45 238.011 119.905 238.303C119.36 238.596 118.923 239.062 118.661 239.63C118.2 240.992 119.122 242.742 118.2 243.828C117.767 244.194 117.221 244.395 116.658 244.395C116.095 244.395 115.55 244.194 115.116 243.828C114.253 243.086 113.34 242.409 112.382 241.802C111.538 241.47 110.609 241.436 109.744 241.707C108.879 241.977 108.128 242.536 107.612 243.293C107.126 244.059 106.847 244.942 106.805 245.854C106.764 246.765 106.96 247.671 107.374 248.48C108.089 249.971 109.456 251.284 109.377 252.937C109.297 254.59 107.866 255.595 107.04 257.021Z" fill="#9FCC29"/>
<path d="M156.928 236.523C156.023 235.299 155.499 233.834 154.689 232.546C154.328 231.872 153.806 231.3 153.171 230.883C152.535 230.467 151.806 230.219 151.051 230.163C151.3 230.337 151.51 230.563 151.667 230.825C151.824 231.087 151.924 231.379 151.962 231.683C151.999 231.987 151.973 232.296 151.885 232.589C151.796 232.882 151.647 233.153 151.448 233.383C151.316 233.534 151.166 233.669 151.004 233.786C151.396 234.289 151.741 234.828 152.036 235.396C152.672 236.748 153.227 238.133 153.752 239.517C154.53 241.578 155.642 243.928 154.721 246.102C153.799 248.275 150.94 247.486 150.988 245.732C150.931 245.64 150.883 245.543 150.845 245.442C150.263 242.799 149.283 240.263 147.938 237.923C146.953 236.313 145.651 235.074 144.586 233.609C142.178 232.939 139.665 232.748 137.184 233.045C136.565 233.045 135.802 233.351 135.596 233.979C135.389 234.607 136.057 235.154 136.66 235.38C137.293 235.498 137.894 235.75 138.423 236.12C138.593 236.344 138.713 236.601 138.777 236.876C138.841 237.15 138.847 237.435 138.794 237.712C138.742 237.989 138.632 238.251 138.472 238.482C138.313 238.712 138.106 238.906 137.867 239.05C136.867 239.596 135.716 239.789 134.595 239.598C133.903 239.541 133.207 239.541 132.514 239.598C132.295 239.651 132.072 239.688 131.847 239.71C131.64 239.753 131.437 239.817 131.244 239.904C130.297 240.467 129.466 241.21 128.798 242.093C128.457 242.533 128.023 242.888 127.528 243.134C127.033 243.379 126.489 243.508 125.938 243.51C124.35 243.301 122.984 241.208 121.443 241.9C119.902 242.592 120.49 245.458 119.108 246.73C118.677 247.024 118.172 247.19 117.653 247.207C117.133 247.224 116.619 247.092 116.17 246.826C115.232 246.392 114.422 245.683 113.453 245.216C112.988 244.977 112.462 244.887 111.946 244.959C111.429 245.031 110.946 245.261 110.562 245.619C110.247 246.154 110.105 246.775 110.156 247.396C110.207 248.017 110.449 248.606 110.848 249.08C111.674 250.025 112.225 251.185 112.437 252.429C112.437 254.86 109.26 256.067 108.529 258.386C108.32 259.351 108.399 260.358 108.756 261.278C109.112 262.198 109.73 262.99 110.531 263.554C111.405 264.249 112.387 264.793 113.437 265.163L114.057 265.083C120.538 264.165 126.335 260.72 132.149 257.693C137.963 254.667 144.301 251.93 150.797 252.574C152.576 252.751 154.323 253.186 156.118 253.218C157.915 253.365 159.697 252.786 161.074 251.608C162.414 249.958 163.169 247.9 163.219 245.764C163.407 244.615 163.46 243.448 163.377 242.286C161.583 240.048 158.644 238.809 156.928 236.523Z" fill="#73A624"/>
<path d="M100.415 269.09C100.415 269.09 102.814 256.141 103.102 254.163C103.102 254.163 111.244 259.541 119.337 258.32L127.415 267.189C127.415 267.189 110.396 274.683 100.415 269.09Z" fill="#FFCF08"/>
<g style="mix-blend-mode:multiply" opacity="0.35">
<path d="M118.923 259.163L118.109 259.258C117.428 260.995 116.312 262.54 114.863 263.757C113.413 264.973 111.675 265.823 109.803 266.228C108.435 266.433 107.036 266.282 105.749 265.792C104.461 265.301 103.331 264.489 102.474 263.437C101.92 266.497 101.415 269.241 101.415 269.241C110.65 274.429 126.415 267.474 126.415 267.474L118.923 259.163Z" fill="#E6B970"/>
</g>
<path d="M104.079 255.163C103.792 257.327 101.415 270.728 101.415 270.728C102.133 271.147 102.069 270.873 102.851 271.163C102.596 267.014 105.531 257.924 105.531 257.924C115.406 260.637 120.639 260.717 119.171 258.958C113.923 258.858 108.764 257.561 104.079 255.163Z" fill="#EFA708"/>
<path d="M110.433 270.834C110.449 270.944 110.449 271.054 110.433 271.163C116.29 270.809 122.039 269.431 127.415 267.09L123.921 265.163C120.065 266.135 109.93 267.968 110.433 270.834Z" fill="#EFA708"/>
<path d="M119.397 280.193C119.474 277.954 119.304 275.713 118.889 273.512C118.746 272.526 118.587 271.523 118.445 270.521C118.302 269.519 117.571 269.137 116.746 269.201C115.929 269.37 115.124 269.588 114.333 269.853C112.555 270.235 110.824 269.201 109.189 268.406C106.22 266.959 102.965 266.198 99.664 266.179C98.162 266.085 96.6644 266.422 95.346 267.149C94.6954 267.533 94.1843 268.115 93.8873 268.81C93.5903 269.506 93.5229 270.278 93.6949 271.014C94.4252 273.337 97.8543 273.846 98.7115 276.136C98.8544 276.518 98.8703 277.043 98.5051 277.25C98.14 277.457 97.6796 277.139 97.3462 276.852C95.8887 275.51 94.0645 274.635 92.1074 274.339C91.1197 274.204 90.1144 274.288 89.1625 274.585C88.2106 274.881 87.3354 275.384 86.5987 276.057C85.8749 276.751 85.3669 277.64 85.1359 278.616C84.9049 279.593 84.9608 280.615 85.2969 281.561C85.6775 282.485 86.3733 283.243 87.2602 283.7C88.1471 284.158 89.1673 284.285 90.1389 284.058C91.1549 283.772 92.2979 283.056 93.1552 283.676C93.3152 283.843 93.4368 284.043 93.5117 284.262C93.5866 284.481 93.6129 284.714 93.5887 284.944C93.5645 285.175 93.4904 285.397 93.3717 285.595C93.2529 285.794 93.0924 285.964 92.9012 286.094C92.4907 286.338 92.0306 286.487 91.5551 286.528C91.0796 286.569 90.601 286.503 90.1547 286.333C89.2407 286.009 88.3006 285.764 87.3448 285.601C86.384 285.541 85.4282 285.781 84.6093 286.288C83.7904 286.795 83.1487 287.545 82.7727 288.433C82.431 289.331 82.3318 290.305 82.4851 291.254C82.6384 292.204 83.0388 293.096 83.6459 293.841C84.2737 294.57 85.0511 295.155 85.925 295.556C86.799 295.957 87.7489 296.164 88.7101 296.163C90.5782 295.999 92.4212 295.62 94.2029 295.034C99.1243 293.905 104.427 294.827 109.237 293.237C111.999 292.265 114.425 290.52 116.226 288.207C118.027 285.895 119.128 283.113 119.397 280.193Z" fill="#9FCC29"/>
<path d="M95.531 284.141C95.9726 285.506 94.7739 286.937 93.4489 287.43C92.0815 287.696 90.6845 287.757 89.3005 287.611C88.6117 287.542 87.9174 287.657 87.2829 287.945C86.6483 288.232 86.0942 288.683 85.6726 289.255C85.3471 290.054 85.3295 290.952 85.6233 291.764C85.9171 292.575 86.4997 293.238 87.2499 293.613C88.8011 294.285 90.5343 294.344 92.1239 293.778C95.0735 292.939 97.7866 291.245 100.799 290.653C102.818 290.242 104.9 290.357 106.951 290.094C109.029 289.982 110.987 289.047 112.424 287.479C113.351 286.166 113.972 284.646 114.238 283.039C115.23 278.706 115.957 274.312 116.415 269.883C113.781 271.232 110.831 272.63 107.992 271.824C106.865 271.448 105.801 270.894 104.837 270.179C103.862 269.46 102.801 268.874 101.683 268.436C101.118 268.225 100.518 268.135 99.9187 268.171C99.3196 268.208 98.7339 268.371 98.1967 268.65C97.6676 268.952 97.2512 269.431 97.0138 270.009C96.7765 270.588 96.732 271.232 96.8875 271.84C97.1224 272.341 97.4628 272.781 97.8835 273.125C98.3041 273.47 98.7941 273.711 99.3166 273.83C100.361 274.042 101.385 274.35 102.377 274.751C102.859 274.973 103.268 275.341 103.549 275.807C103.83 276.273 103.971 276.816 103.954 277.366C103.857 277.803 103.652 278.207 103.358 278.536C103.065 278.865 102.694 279.108 102.282 279.24C100.906 279.652 99.4311 279.511 98.1494 278.846C96.8402 278.287 95.6256 277.481 94.3006 276.971C93.649 276.674 92.9455 276.521 92.2343 276.521C91.5231 276.521 90.8196 276.674 90.168 276.971C89.5518 277.315 89.0865 277.893 88.8691 278.585C88.6516 279.277 88.6988 280.03 89.0008 280.687C89.4353 281.18 89.965 281.571 90.555 281.835C91.1449 282.098 91.7818 282.228 92.4236 282.217C93.7328 282.414 95.1366 282.858 95.531 284.141Z" fill="#73A624"/>
<path d="M101.415 292.41C101.412 292.834 101.529 293.25 101.753 293.616C101.977 293.982 102.3 294.284 102.688 294.49C103.464 294.91 104.341 295.133 105.233 295.136C107.743 295.288 110.251 294.81 112.506 293.749C115.292 292.465 117.486 290.25 118.672 287.525C119.249 286.169 119.495 284.706 119.392 283.245C119.289 281.785 118.839 280.366 118.076 279.096C117.283 277.841 116.148 276.814 114.792 276.123C113.436 275.432 111.91 275.104 110.374 275.172C109.25 275.267 107.944 275.818 107.861 276.89C107.779 277.961 109.018 278.686 109.514 279.679C109.674 280.032 109.732 280.42 109.682 280.802C109.633 281.184 109.478 281.547 109.233 281.853C108.979 282.153 108.647 282.385 108.271 282.526C107.894 282.667 107.485 282.712 107.085 282.657C105.729 282.468 104.605 281.081 103.266 281.38C102.75 281.522 102.303 281.831 102.001 282.254C101.699 282.677 101.562 283.187 101.613 283.697C101.758 284.691 102.076 285.655 102.556 286.549C103.039 287.447 103.173 288.48 102.936 289.464C102.655 290.519 101.564 291.307 101.415 292.41Z" fill="#9FCC29"/>
<path d="M117.085 279.011C116.254 278.836 115.47 278.488 114.786 277.988C114.101 277.483 113.278 277.195 112.424 277.163C112.004 277.163 111.6 277.32 111.293 277.604C110.986 277.887 110.8 278.276 110.773 278.69C110.773 279.316 111.375 279.789 111.684 280.339C111.896 280.717 112.007 281.143 112.007 281.575C112.007 282.008 111.896 282.434 111.684 282.812C111.457 283.182 111.141 283.491 110.764 283.709C110.387 283.928 109.96 284.05 109.523 284.064C108.897 284.005 108.277 283.893 107.671 283.728C107.331 283.606 106.962 283.596 106.616 283.698C106.27 283.8 105.967 284.01 105.751 284.295C105.534 284.581 105.417 284.928 105.415 285.285C105.413 285.642 105.528 285.99 105.741 286.278C106.36 287.633 107.458 288.719 108.828 289.331C110.188 289.971 111.694 290.25 113.196 290.14C115.026 290.114 116.8 289.509 118.258 288.415C118.981 287.826 119.551 287.076 119.924 286.227C120.297 285.378 120.462 284.454 120.404 283.53C120.322 282.61 119.955 281.738 119.353 281.032C118.751 280.327 117.942 279.824 117.039 279.591L117.085 279.011Z" fill="#73A624"/>
<path d="M148.553 246.225L150.996 251.163L172.415 250.126L171.952 246.076C171.952 246.076 165.355 236.676 158.184 236.199C151.012 235.721 147.674 240.166 148.553 246.225Z" fill="#D12424"/>
<path d="M148.555 246.163H172.415C172.415 246.163 165.689 236.682 158.376 236.2C151.064 235.718 147.66 240.053 148.555 246.163Z" fill="#EA3333"/>
<path d="M154.213 243.459C154.963 243.771 157.475 245.737 157.769 245.786C157.107 244.646 156.372 243.551 155.567 242.509C155.567 242.509 157.084 240.87 161.52 242.656C161.52 242.656 160.704 244.41 161.977 245.36C163.249 246.311 163.216 243.312 163.135 242.886C163.053 242.459 166.152 243.607 167.783 246.032H172.415C172.415 246.032 165.679 236.674 158.356 236.199C151.033 235.723 147.624 240.132 148.57 246.163H153.267C153.365 245.033 153.691 243.23 154.213 243.459Z" fill="#C91D1D"/>
<path d="M156.888 239.853C159.32 239.688 161.753 240.173 163.939 241.258C166.124 242.343 167.985 243.991 169.332 246.032H172.415C172.415 246.032 165.679 236.674 158.356 236.199C151.033 235.723 147.624 240.132 148.57 246.163H150.804C150.543 240.984 153.61 240.001 156.888 239.853Z" fill="#FF3333"/>
<path d="M155.415 244.862C155.415 245.117 155.274 245.237 155.009 245.117C154.864 245.058 154.735 244.968 154.632 244.853C154.529 244.739 154.455 244.604 154.415 244.458C154.415 244.204 154.571 244.099 154.837 244.204C154.98 244.264 155.106 244.354 155.206 244.468C155.306 244.583 155.378 244.717 155.415 244.862Z" fill="#FF7E70"/>
<path d="M158.415 243.844C158.415 244.102 158.281 244.231 158.012 244.128C157.86 244.069 157.727 243.98 157.623 243.868C157.519 243.756 157.448 243.624 157.415 243.483C157.415 243.225 157.549 243.096 157.818 243.199C157.968 243.259 158.1 243.349 158.204 243.461C158.308 243.573 158.38 243.704 158.415 243.844Z" fill="#FF7E70"/>
<path d="M160.415 244.833C160.415 245.088 160.288 245.227 160.007 245.135C159.857 245.068 159.727 244.975 159.625 244.863C159.523 244.75 159.451 244.621 159.415 244.484C159.415 244.229 159.542 244.101 159.823 244.194C159.973 244.258 160.103 244.349 160.205 244.459C160.307 244.57 160.379 244.697 160.415 244.833Z" fill="#FF7E70"/>
<path d="M165.415 244.854C165.415 245.097 165.279 245.233 165.008 245.127C164.862 245.063 164.734 244.972 164.631 244.859C164.529 244.747 164.455 244.616 164.415 244.475C164.415 244.217 164.551 244.096 164.839 244.202C164.984 244.264 165.112 244.355 165.212 244.468C165.312 244.581 165.381 244.713 165.415 244.854Z" fill="#FF7E70"/>
<path d="M114.779 246.351L111.415 249.541L128.474 277.163L132.312 276.541C133.695 273.785 134.415 270.739 134.415 267.65C134.415 264.561 133.695 261.515 132.312 258.759C127.511 249.461 120.371 245.187 114.779 246.351Z" fill="#D12424"/>
<path d="M114.415 246.349L132.273 276.163C133.681 273.439 134.415 270.428 134.415 267.374C134.415 264.319 133.681 261.308 132.273 258.584C127.382 249.423 120.11 245.198 114.415 246.349Z" fill="#EA3333"/>
<path d="M121.484 253.444C121.709 254.39 121.484 257.59 121.645 257.874C121.806 258.158 123.432 255.131 123.432 255.131C123.432 255.131 126.362 257.023 127.699 262.557C127.699 262.557 125.251 261.548 125.187 263.14C125.123 264.733 128.278 264.717 128.665 264.575C129.051 264.433 130.162 268.359 128.794 270.393L132.272 276.163C133.681 273.439 134.415 270.428 134.415 267.374C134.415 264.319 133.681 261.308 132.272 258.584C127.441 249.423 120.115 245.198 114.415 246.349L117.925 252.167C119.165 252.387 121.323 252.782 121.484 253.444Z" fill="#C91D1D"/>
<path d="M127.184 256.707C130.178 261.437 132.69 267.129 129.969 272.332L132.272 276.163C133.681 273.439 134.415 270.428 134.415 267.374C134.415 264.319 133.681 261.308 132.272 258.584C127.441 249.423 120.115 245.198 114.415 246.349L116.025 249.124C121.258 248.793 124.591 252.608 127.184 256.707Z" fill="#FF3333"/>
<path d="M121.062 255.163C120.807 255.163 120.536 254.874 120.456 254.32C120.401 254.105 120.401 253.867 120.458 253.652C120.514 253.438 120.621 253.263 120.759 253.163C121.014 253.163 121.285 253.453 121.38 254.007C121.431 254.225 121.426 254.464 121.367 254.677C121.308 254.891 121.2 255.064 121.062 255.163Z" fill="#FF7E70"/>
<path d="M124.052 258.162C123.907 258.172 123.763 258.134 123.65 258.058C123.537 257.982 123.464 257.873 123.447 257.753C123.398 257.64 123.406 257.516 123.467 257.407C123.529 257.299 123.641 257.215 123.777 257.174C124.039 257.117 124.3 257.299 124.383 257.571C124.432 257.686 124.425 257.812 124.363 257.922C124.301 258.032 124.19 258.119 124.052 258.162Z" fill="#FF7E70"/>
<path d="M125.06 261.156C124.922 261.186 124.782 261.122 124.67 260.976C124.559 260.83 124.485 260.615 124.464 260.375C124.432 260.262 124.415 260.137 124.415 260.011C124.415 259.884 124.431 259.759 124.462 259.645C124.493 259.531 124.539 259.431 124.596 259.351C124.653 259.272 124.719 259.215 124.79 259.186C124.861 259.157 124.935 259.156 125.006 259.183C125.077 259.21 125.144 259.264 125.201 259.342C125.259 259.419 125.306 259.518 125.338 259.632C125.37 259.745 125.388 259.869 125.389 259.995C125.432 260.225 125.422 260.475 125.36 260.691C125.299 260.908 125.191 261.075 125.06 261.156Z" fill="#FF7E70"/>
<path d="M128.062 267.163C127.805 267.163 127.532 267.034 127.452 266.761C127.399 266.647 127.403 266.521 127.463 266.41C127.523 266.298 127.634 266.21 127.773 266.164C127.92 266.159 128.064 266.2 128.177 266.276C128.29 266.353 128.363 266.461 128.383 266.579C128.431 266.691 128.425 266.814 128.365 266.923C128.306 267.031 128.197 267.117 128.062 267.163Z" fill="#FF7E70"/>
<path d="M113.925 245.365L110.415 248.553L128.213 276.163L132.217 275.542C133.662 272.785 134.415 269.737 134.415 266.646C134.415 263.556 133.662 260.508 132.217 257.751C127.208 248.426 119.775 244.153 113.925 245.365Z" fill="#D12424"/>
<path d="M114.415 245.369L132.27 276.163C133.68 273.349 134.415 270.237 134.415 267.081C134.415 263.926 133.68 260.814 132.27 257.999C127.38 248.494 120.125 244.132 114.415 245.369Z" fill="#EA3333"/>
<path d="M121.493 252.682C121.718 253.66 121.493 256.965 121.67 257.258C121.846 257.551 123.439 254.425 123.439 254.425C123.439 254.425 126.383 256.379 127.702 262.094C127.702 262.094 125.257 261.052 125.192 262.697C125.128 264.342 128.281 264.325 128.667 264.195C129.053 264.065 130.163 268.087 128.811 270.187L132.27 276.163C133.68 273.347 134.415 270.235 134.415 267.077C134.415 263.92 133.68 260.807 132.27 257.991C127.444 248.53 120.125 244.166 114.415 245.355L117.938 251.412C119.192 251.591 121.348 251.999 121.493 252.682Z" fill="#C91D1D"/>
<path d="M127.187 256.053C130.195 260.938 132.688 266.833 129.97 272.19L132.27 276.163C133.68 273.347 134.415 270.235 134.415 267.077C134.415 263.92 133.68 260.807 132.27 257.991C127.444 248.53 120.125 244.166 114.415 245.355L116.024 248.237C121.267 247.879 124.597 251.917 127.187 256.053Z" fill="#FF3333"/>
<path d="M120.077 254.163C119.817 254.163 119.526 254.018 119.444 253.751C119.363 253.484 119.444 253.205 119.752 253.168C120.061 253.132 120.287 253.302 120.385 253.581C120.482 253.86 120.336 254.115 120.077 254.163Z" fill="#FF7E70"/>
<path d="M123.711 258.16C123.42 258.18 123.131 258.108 122.902 257.959C122.673 257.81 122.523 257.594 122.481 257.357C122.381 257.125 122.395 256.871 122.521 256.648C122.646 256.425 122.873 256.251 123.152 256.163C123.439 256.168 123.716 256.251 123.939 256.399C124.162 256.548 124.318 256.753 124.382 256.982C124.447 257.212 124.416 257.453 124.294 257.666C124.172 257.88 123.967 258.053 123.711 258.16Z" fill="#FF7E70"/>
<path d="M124.058 260.158C123.99 260.167 123.92 260.164 123.852 260.149C123.785 260.135 123.722 260.108 123.667 260.072C123.611 260.036 123.565 259.99 123.53 259.938C123.495 259.886 123.472 259.828 123.464 259.769C123.432 259.712 123.415 259.65 123.415 259.586C123.415 259.523 123.431 259.461 123.462 259.404C123.493 259.347 123.539 259.297 123.595 259.257C123.652 259.217 123.718 259.189 123.789 259.175C123.859 259.16 123.933 259.16 124.004 259.173C124.075 259.187 124.141 259.214 124.199 259.252C124.256 259.291 124.303 259.341 124.335 259.397C124.367 259.454 124.385 259.516 124.386 259.579C124.409 259.636 124.418 259.696 124.414 259.756C124.41 259.816 124.392 259.874 124.362 259.928C124.331 259.982 124.289 260.03 124.237 260.07C124.184 260.109 124.124 260.139 124.058 260.158Z" fill="#FF7E70"/>
<path d="M128.06 266.163C127.802 266.163 127.528 266.032 127.447 265.756C127.399 265.642 127.405 265.517 127.465 265.407C127.525 265.297 127.634 265.21 127.77 265.163C128.028 265.163 128.302 265.295 128.383 265.571C128.431 265.685 128.425 265.809 128.365 265.919C128.305 266.029 128.196 266.117 128.06 266.163Z" fill="#FF7E70"/>
<path d="M146.581 247.353C147.238 246.996 147.791 246.472 148.189 245.832C148.372 245.341 148.445 244.814 148.404 244.29C148.362 243.767 148.206 243.259 147.947 242.805C147.417 241.631 146.65 240.583 145.697 239.729C144.968 239.021 144.071 238.519 143.093 238.273C142.606 238.146 142.098 238.129 141.604 238.223C141.11 238.316 140.642 238.517 140.232 238.812C139.83 239.12 139.53 239.544 139.369 240.029C139.208 240.513 139.195 241.036 139.332 241.528C138.735 240.61 137.916 239.864 136.953 239.362C135.99 238.861 134.916 238.621 133.835 238.665C132.509 238.733 131.259 239.319 130.347 240.301C129.897 240.781 129.572 241.368 129.401 242.008C129.23 242.647 129.218 243.321 129.366 243.966C129.549 244.6 129.915 245.162 130.417 245.579C130.919 245.997 131.533 246.25 132.179 246.306C131.377 246.008 130.505 245.96 129.676 246.169C128.846 246.378 128.097 246.834 127.524 247.479C126.951 248.124 126.58 248.928 126.459 249.789C126.337 250.65 126.471 251.528 126.843 252.311C127.226 253.034 127.768 253.658 128.425 254.135C129.083 254.611 129.839 254.928 130.636 255.06C132.272 255.318 133.946 255.091 135.458 254.405C136.914 253.724 138.303 252.902 139.605 251.951L146.581 247.353Z" fill="#FFCF08"/>
<path d="M145.757 247.296C146.055 246.866 146.258 246.376 146.353 245.861C146.448 245.345 146.433 244.814 146.309 244.305C146.185 243.795 145.955 243.318 145.633 242.905C145.312 242.493 144.907 242.154 144.445 241.911C143.984 241.668 143.476 241.527 142.956 241.497C142.436 241.468 141.916 241.55 141.43 241.738C140.944 241.927 140.503 242.218 140.138 242.591C139.772 242.965 139.489 243.413 139.309 243.905C138.821 242.987 138.07 242.237 137.154 241.755C136.238 241.272 135.199 241.078 134.172 241.198C133.73 241.225 133.302 241.363 132.927 241.6C132.552 241.836 132.241 242.163 132.023 242.551C131.865 243.022 131.854 243.53 131.989 244.008C132.125 244.486 132.401 244.911 132.781 245.226C133.557 245.844 134.45 246.294 135.405 246.548C133.636 246.438 131.891 247.007 130.521 248.14C130.183 248.375 129.906 248.689 129.713 249.055C129.521 249.421 129.418 249.828 129.415 250.242C129.475 250.577 129.618 250.891 129.831 251.156C130.044 251.42 130.319 251.626 130.632 251.755C131.26 252.008 131.931 252.138 132.608 252.137C135.114 252.248 137.624 252.012 140.068 251.436C141.443 251.145 142.755 250.606 143.94 249.844C145.125 249.071 145.96 247.858 146.263 246.468L145.757 247.296Z" fill="#EFA708"/>
<path d="M174.975 249.046C175.457 249.704 176.128 250.189 176.894 250.432C177.656 250.661 178.395 250.967 179.099 251.346C179.452 251.53 179.757 251.8 179.986 252.132C180.215 252.465 180.363 252.85 180.415 253.254C180.411 253.642 180.328 254.025 180.173 254.379C180.017 254.733 179.792 255.049 179.511 255.309C178.583 256.24 177.4 256.856 176.121 257.075C174.842 257.294 173.529 257.104 172.358 256.532C171.516 256.042 170.733 255.45 170.026 254.771L167.98 252.879L165.648 250.53C164.04 248.449 161.872 246.901 159.415 246.077C159.704 245.372 160.151 244.746 160.718 244.25C161.286 243.755 161.959 243.403 162.682 243.223C164.132 242.872 165.642 242.872 167.092 243.223C167.47 243.364 167.874 243.417 168.275 243.377C168.675 243.338 169.062 243.207 169.407 242.995C169.899 242.522 169.931 241.722 170.296 241.135C170.527 240.776 170.857 240.495 171.244 240.33C171.631 240.164 172.058 240.121 172.469 240.206C172.878 240.301 173.262 240.486 173.596 240.748C173.93 241.01 174.205 241.342 174.404 241.722C174.784 242.493 174.944 243.358 174.864 244.218C174.864 245.05 174.61 245.849 174.531 246.697C174.412 247.509 174.569 248.339 174.975 249.046Z" fill="#9FCC29"/>
<path d="M160.415 248.394C163.816 248.022 167.025 246.608 169.612 244.342C170.032 243.897 170.53 243.537 171.081 243.279C171.351 243.164 171.649 243.134 171.937 243.192C172.225 243.251 172.488 243.395 172.694 243.606C172.861 243.87 172.95 244.176 172.95 244.489C172.95 244.802 172.861 245.108 172.694 245.371C172.388 245.91 171.936 246.368 171.646 246.924C171.45 247.294 171.332 247.701 171.296 248.119C171.26 248.537 171.309 248.958 171.439 249.357C171.568 249.756 171.777 250.123 172.051 250.438C172.325 250.753 172.659 251.009 173.033 251.189C173.523 251.396 174.031 251.555 174.55 251.663C175.068 251.777 175.55 252.018 175.954 252.366C176.149 252.541 176.291 252.77 176.363 253.025C176.434 253.28 176.432 253.55 176.357 253.804C176.214 254.128 175.978 254.401 175.68 254.588C174.121 255.77 172.181 256.319 170.243 256.125C168.305 255.932 166.508 255.01 165.207 253.542C164.417 252.643 163.836 251.581 163.126 250.617C162.481 249.601 161.53 248.822 160.415 248.394Z" fill="#73A624"/>
<path d="M93.475 312.113C96.9199 313.451 100.76 313.513 104.25 312.287C105.979 311.669 107.557 310.716 108.886 309.488C110.214 308.26 111.265 306.783 111.973 305.148C112.774 302.977 113.246 300.706 113.375 298.405L114.415 287.594C111.774 288.045 109.054 287.76 106.577 286.771C105.133 285.94 103.527 285.401 101.858 285.188C101.026 285.1 100.185 285.248 99.4399 285.614C98.6948 285.979 98.0781 286.547 97.6663 287.246C97.2373 288.148 97.3033 289.225 96.8577 290.111C96.1706 291.241 95.0521 292.07 93.739 292.422C92.4384 292.761 91.202 293.295 90.0757 294.005C89.5204 294.375 89.1132 294.915 88.9212 295.536C88.7291 296.158 88.7639 296.824 89.0196 297.424C89.5477 298.358 90.8018 298.785 91.2143 299.767C91.3435 300.211 91.3553 300.68 91.2487 301.131C91.1421 301.581 90.9205 301.999 90.6038 302.347C89.9586 303.038 89.3736 303.779 88.8546 304.563C88.4882 305.328 88.3468 306.175 88.4457 307.012C88.5446 307.849 88.88 308.644 89.4157 309.311C90.4629 310.597 91.8713 311.569 93.475 312.113Z" fill="#B55728"/>
<g style="mix-blend-mode:multiply" opacity="0.32">
<path d="M108.751 291.118C105.727 293.28 105.409 295.731 104.295 298.902C103.854 299.867 103.169 300.699 102.309 301.315C101.449 301.93 100.443 302.308 99.3921 302.41C98.2901 302.584 97.1619 302.459 96.1238 302.048C95.0858 301.637 94.1755 300.954 93.4869 300.071C91.6246 297.621 91.2903 294.754 88.8709 295.41C88.7683 295.699 88.7267 296.007 88.7486 296.313C88.7705 296.619 88.8555 296.917 88.9982 297.188C89.5076 298.133 90.7173 298.566 91.1152 299.559C91.2398 300.009 91.2512 300.483 91.1484 300.939C91.0456 301.395 90.8318 301.818 90.5263 302.17C89.904 302.869 89.3397 303.619 88.8391 304.412C88.4856 305.187 88.3492 306.044 88.4446 306.89C88.54 307.737 88.8635 308.542 89.3803 309.217C90.401 310.546 91.7835 311.548 93.3595 312.1C96.6825 313.454 100.387 313.517 103.753 312.277C105.421 311.651 106.943 310.687 108.225 309.444C109.506 308.201 110.52 306.707 111.203 305.053C111.994 302.831 112.46 300.506 112.587 298.149C112.858 295.154 113.144 292.159 113.415 289.163C111.76 289.539 110.182 290.2 108.751 291.118Z" fill="#B55728"/>
</g>
<path d="M106.904 290.259C106.35 289.81 105.688 289.475 104.966 289.278C104.24 289.087 103.459 289.136 102.773 289.416C102.424 289.559 102.121 289.773 101.888 290.04C101.656 290.307 101.501 290.619 101.438 290.949C101.382 291.283 101.429 291.624 101.574 291.937C101.719 292.25 101.957 292.524 102.264 292.73C102.576 292.928 102.935 293.062 103.314 293.124C103.693 293.186 104.084 293.175 104.457 293.09C105.203 292.902 105.888 292.566 106.459 292.109C107.031 291.681 107.587 291.046 107.365 290.424C107.142 289.803 107.444 290.134 106.904 290.259Z" fill="#8D3800"/>
<path d="M103.609 296.814C103.205 296.444 102.704 296.22 102.177 296.173C101.65 296.126 101.123 296.258 100.668 296.552C100.224 296.864 99.872 297.308 99.6553 297.832C99.4386 298.357 99.3663 298.938 99.4473 299.506C99.5437 300.087 99.7857 300.629 100.147 301.071C100.508 301.513 100.974 301.838 101.494 302.011C101.997 302.179 102.53 302.209 103.047 302.098C103.563 301.987 104.046 301.739 104.452 301.375C104.731 301.132 104.961 300.829 105.127 300.485C105.293 300.141 105.391 299.763 105.415 299.375C105.4 298.971 105.308 298.575 105.145 298.211C104.982 297.848 104.752 297.525 104.469 297.263C103.919 296.646 104.228 297.356 103.609 296.814Z" fill="#8D3800"/>
<path d="M97.3517 303.63C96.6612 303.399 95.9432 303.247 95.2135 303.178C94.4757 303.108 93.7364 303.294 93.134 303.699C92.84 303.908 92.6208 304.196 92.5057 304.524C92.3906 304.853 92.385 305.206 92.4897 305.538C92.7374 306.071 93.2009 306.491 93.7784 306.704C94.5659 307.103 95.4717 307.248 96.3558 307.116C96.7941 307.044 97.2052 306.868 97.5491 306.603C97.893 306.339 98.1579 305.995 98.3182 305.606C98.4595 305.211 98.4458 304.78 98.2794 304.393C98.113 304.006 97.8049 303.687 97.4102 303.493C97.0588 303.37 97.7031 303.63 97.3517 303.63Z" fill="#8D3800"/>
<g style="mix-blend-mode:multiply" opacity="0.55">
<path d="M182.253 260.478H182.172L182.011 260.335L181.833 260.208C181.786 260.157 181.732 260.114 181.671 260.081L181.041 259.573L180.895 259.461L180.394 259.08L180.248 258.969C179.423 258.334 178.34 257.524 177.014 256.602C177.395 256.465 177.763 256.295 178.114 256.094C177.074 255.909 176.084 255.514 175.208 254.934C174.331 254.355 173.586 253.603 173.02 252.727C170.885 249.963 168.928 245.754 164.724 245.722C162.892 245.775 161.096 245.215 159.63 244.134C155.975 241.179 151.221 242.069 146.418 243.435C143.674 244.221 141.285 245.902 139.643 248.2C138.559 249.788 137.152 251.123 136.166 252.377C134.42 254.601 132.285 257.428 129.164 257.667C126.997 257.841 124.507 256.936 124.313 254.49C124.296 254.342 124.296 254.193 124.313 254.045C121.078 257.825 118.232 262.082 115.936 264.909C115.804 265.07 115.664 265.224 115.516 265.37C115.516 265.561 115.516 265.767 115.516 265.974C115.731 267.879 115.437 269.807 114.663 271.567C113.889 273.328 112.661 274.859 111.101 276.012C112.071 279.411 112.637 283.334 109.807 285.05C109.13 285.451 108.385 285.731 107.608 285.876C107.689 290.291 108.611 292.928 106.395 297.804C103.808 303.427 105.926 306.222 100.59 310.289C99.0094 311.438 97.2659 312.353 95.415 313.005H95.7708H96.0295C96.6764 313.084 97.3394 313.132 98.0671 313.163C98.7948 313.163 99.5548 313.163 100.363 313.163H100.913C101.738 313.163 102.53 313.036 103.517 312.925C124.927 310.273 161.037 260.732 182.415 260.51L182.253 260.478Z" fill="#BD9749"/>
</g>
<path d="M112.638 282.776C114.247 271.744 119.683 261.629 127.993 254.204C132.166 250.563 137.108 247.915 142.449 246.457C147.79 245 153.391 244.77 158.833 245.787C167.019 247.544 174.157 252.349 181.069 257.074C185.903 260.428 187.144 262.185 192.058 265.539C192.912 266.119 198.31 267.006 198.407 268.022C198.584 269.635 195.893 272.021 194.282 272.489C176.362 277.614 159.23 285.177 143.365 294.966C135.615 299.803 128.171 305.06 119.921 308.946C111.671 312.832 102.39 315.218 93.415 313.702C95.691 314.059 98.0206 313.81 100.17 312.981C102.319 312.152 104.213 310.771 105.661 308.978C108.658 305.511 111.913 287.307 112.638 282.776Z" fill="#FAD15F"/>
<path d="M169.178 254.223C159.873 249.468 147.537 245.219 137.526 250.847C130.002 255.08 125.158 261.357 120.858 268.633C116.559 275.91 116.479 285.009 114.121 293.142C112.677 298.135 111.233 305.602 107.27 309.454C105.617 311.099 103.618 312.365 101.415 313.163C107.952 312.693 114.336 310.981 120.217 308.122C128.43 304.302 135.842 299.07 143.558 294.378C159.368 284.75 176.442 277.315 194.3 272.28C195.904 271.82 198.583 269.521 198.407 267.888C198.414 267.857 198.414 267.825 198.407 267.793C187.707 267.492 178.498 258.995 169.178 254.223Z" fill="#F9C22D"/>
<path d="M169.178 254.223C159.873 249.468 147.537 245.219 137.526 250.847C130.002 255.08 125.158 261.357 120.858 268.633C116.559 275.91 116.479 285.009 114.121 293.142C112.677 298.135 111.233 305.602 107.27 309.454C105.617 311.099 103.618 312.365 101.415 313.163C107.952 312.693 114.336 310.981 120.217 308.122C128.43 304.302 135.842 299.07 143.558 294.378C159.368 284.75 176.442 277.315 194.3 272.28C195.904 271.82 198.583 269.521 198.407 267.888C198.414 267.857 198.414 267.825 198.407 267.793C187.707 267.492 178.498 258.995 169.178 254.223Z" fill="#F9C22D"/>
<g style="mix-blend-mode:multiply" opacity="0.55">
<path d="M182.108 263.167C174.993 263.051 168.104 265.613 162.857 270.325C156.44 275.596 150.376 281.054 142.002 282.911C131.719 285.176 124.356 278.931 119.8 271.033C116.495 277.955 116.254 285.963 114.121 293.294C112.677 298.25 111.233 305.659 107.27 309.482C105.617 311.114 103.618 312.371 101.415 313.163C107.952 312.697 114.336 310.998 120.217 308.161C128.43 304.369 135.842 299.178 143.558 294.521C159.368 284.967 176.442 277.588 194.3 272.591C195.904 272.134 198.583 269.853 198.407 268.233C198.414 268.202 198.414 268.17 198.407 268.139C192.597 268.067 186.934 266.34 182.108 263.167Z" fill="#F2CC49"/>
</g>
<g style="mix-blend-mode:multiply" opacity="0.55">
<path d="M157.576 280.164C146.94 282.678 140.413 287.106 132.611 294.648C128.726 298.362 124.65 302.352 120.415 306.163L121.052 305.888C129.108 301.979 136.48 296.627 144.138 291.761C153.17 286.14 162.625 281.259 172.415 277.163C167.193 277.812 161.986 279.11 157.576 280.164Z" fill="#D68902"/>
</g>
<path d="M152.145 252.558C150.937 252.124 149.601 252.046 148.337 252.334C147.074 252.622 145.953 253.262 145.142 254.155C144.791 254.516 144.554 254.951 144.454 255.416C144.396 255.646 144.403 255.884 144.473 256.111C144.543 256.338 144.675 256.547 144.857 256.72C145.235 256.971 145.687 257.122 146.16 257.156C146.633 257.19 147.108 257.105 147.527 256.911C148.885 256.46 150.096 255.725 151.054 254.771C151.571 254.327 151.882 253.732 151.927 253.1C151.91 252.47 152.867 252.441 152.145 252.558Z" fill="#E9A000"/>
<path d="M140.062 262.578C139.373 262.191 138.579 262.07 137.815 262.236C137.051 262.402 136.366 262.845 135.875 263.488C135.619 263.776 135.46 264.146 135.423 264.54C135.387 264.935 135.475 265.331 135.673 265.666C135.939 265.898 136.255 266.056 136.593 266.125C136.931 266.193 137.28 266.171 137.607 266.059C138.345 265.961 139.05 265.673 139.659 265.22C139.961 264.984 140.189 264.657 140.313 264.28C140.436 263.904 140.448 263.497 140.348 263.113C140.096 262.381 140.601 262.024 140.062 262.578Z" fill="#E9A000"/>
<path d="M157.259 267.85C156.369 266.961 155.211 266.388 153.961 266.217C152.712 266.046 151.44 266.287 150.342 266.904C149.244 267.521 148.38 268.478 147.882 269.63C147.385 270.782 147.281 272.064 147.588 273.28C147.657 273.643 147.806 273.986 148.023 274.286C148.24 274.586 148.521 274.835 148.845 275.015C149.216 275.137 149.607 275.185 149.997 275.155C150.386 275.125 150.766 275.019 151.114 274.842C153.035 274.055 154.719 272.788 156.002 271.164C156.526 270.556 157.87 268.44 157.259 267.85Z" fill="#E9A000"/>
<path d="M171.902 256.494C171.029 256.937 170.155 257.919 170.487 258.92C170.819 259.921 171.92 260.229 172.863 260.152C173.424 260.138 173.974 259.98 174.47 259.69C174.721 259.551 174.938 259.347 175.102 259.095C175.266 258.844 175.373 258.553 175.413 258.246C175.43 257.819 175.317 257.398 175.093 257.049C174.868 256.701 174.544 256.444 174.173 256.321C173.423 256.062 172.612 256.124 171.902 256.494Z" fill="#E9A000"/>
<path d="M182.666 265.871C181.97 265.584 181.234 265.366 180.474 265.221C179.703 265.083 178.896 265.197 178.228 265.538C177.901 265.71 177.652 265.964 177.52 266.262C177.388 266.559 177.38 266.883 177.498 267.185C177.642 267.451 177.872 267.681 178.164 267.852C178.455 268.022 178.797 268.126 179.155 268.152C179.87 268.191 180.588 268.128 181.276 267.965C181.785 267.9 182.275 267.758 182.72 267.546C182.938 267.434 183.117 267.278 183.238 267.093C183.36 266.908 183.421 266.701 183.415 266.492C183.365 266.299 183.256 266.119 183.097 265.97C182.938 265.821 182.734 265.707 182.506 265.64C182.06 265.481 183.094 266.044 182.666 265.871Z" fill="#E9A000"/>
<path d="M170.074 272.852C168.966 272.34 167.74 272.107 166.512 272.175C165.898 272.219 165.306 272.417 164.797 272.749C164.287 273.08 163.877 273.534 163.606 274.065C163.365 274.605 163.352 275.214 163.569 275.764C163.786 276.313 164.218 276.76 164.772 277.01C165.462 277.214 166.2 277.214 166.889 277.01C167.765 276.842 168.59 276.486 169.303 275.971C169.653 275.707 169.922 275.356 170.081 274.957C170.24 274.557 170.283 274.124 170.206 273.703C169.976 272.836 170.879 272.474 170.074 272.852Z" fill="#E9A000"/>
<path d="M143.365 280.31C142.414 280.516 141.546 280.97 140.865 281.618C140.705 281.785 140.583 281.98 140.507 282.191C140.431 282.403 140.401 282.626 140.421 282.848C140.44 283.071 140.508 283.287 140.62 283.484C140.732 283.681 140.887 283.855 141.073 283.996C141.396 284.135 141.753 284.189 142.106 284.152C142.46 284.116 142.795 283.99 143.076 283.788C143.684 283.457 144.135 282.926 144.342 282.302C144.438 281.986 144.439 281.652 144.346 281.335C144.253 281.018 144.069 280.731 143.814 280.504C143.285 280.073 144.022 280.102 143.365 280.31Z" fill="#E9A000"/>
<path d="M125.28 287.24C124.291 287.477 123.398 287.992 122.716 288.718C122.034 289.444 121.594 290.348 121.453 291.314C121.35 291.959 121.458 292.619 121.761 293.204C121.923 293.493 122.163 293.734 122.457 293.903C122.75 294.072 123.086 294.162 123.428 294.163C124.4 294.163 125.079 293.263 125.589 292.466C126.098 291.669 126.468 290.989 126.885 290.296C127.14 289.965 127.309 289.581 127.379 289.176C127.449 288.77 127.417 288.355 127.286 287.963C127.094 287.682 126.822 287.46 126.502 287.321C126.182 287.183 125.828 287.134 125.481 287.181C124.848 287.24 125.959 287.077 125.28 287.24Z" fill="#E9A000"/>
<g style="mix-blend-mode:screen" opacity="0.32">
<path d="M166.982 255.234C164.945 252.68 162.024 250.973 158.789 250.448C155.584 249.95 152.31 250.107 149.168 250.911C141.654 252.676 134.808 256.552 129.446 262.078C127.74 263.541 126.657 265.594 126.415 267.821C126.512 269.097 126.988 270.317 127.781 271.325C128.574 272.333 129.65 273.084 130.873 273.484C133.33 274.234 135.936 274.365 138.457 273.867C144.509 272.897 150.428 271.232 156.095 268.906C158.469 268.109 160.732 267.016 162.83 265.651C164.859 264.243 166.364 262.207 167.111 259.86C167.471 258.688 167.512 257.441 167.23 256.247C166.949 255.053 166.354 253.955 165.507 253.064L166.982 255.234Z" fill="#FAD15F"/>
</g>
<path d="M63.415 118.178L75.2307 139.146L125.415 117.035L93.8097 103.146C93.8097 103.146 71.163 112.813 63.415 118.178Z" fill="#EFEFEC"/>
<path d="M137.414 95.4389L122.415 118.146L195.415 112.817L184.529 91.1464L137.414 95.4389Z" fill="#EFEFEC"/>
<path d="M158.603 132.025L195.415 113.146L121.759 116.501L75.415 139.146L158.603 132.025Z" fill="#E2B58B"/>
<path d="M82.415 65.7844L123.309 124.146L127.415 121.53L89.4786 60.1464C89.4786 60.1464 82.4474 60.5201 82.415 65.7844Z" fill="#716361"/>
<path d="M97.415 67.0418L134.056 127.146L138.415 124.898L105.019 62.1473C105.019 62.1473 97.8739 61.956 97.415 67.0418Z" fill="#716361"/>
<path d="M102.632 208.472L155.383 209.146L180.838 192.504L195.415 113.146L121.759 116.549L75.415 139.513L102.632 208.472Z" fill="#EFEFEC"/>
<g style="mix-blend-mode:multiply">
<path d="M158.883 115.146L122.014 116.826L75.415 139.722L102.781 208.474L155.823 209.146L171.415 199.034L158.883 115.146Z" fill="#EAE6DC"/>
</g>
<path d="M155.415 209.146L180.849 192.504L195.415 113.146L158.824 121.652L155.415 209.146Z" fill="#EFEFEC"/>
<path d="M136.201 177.146C131.76 178.594 127.134 179.432 122.455 179.637C118.11 180.113 113.715 179.962 109.415 179.19L110.12 191.146L138.415 189.917L136.332 177.561L136.201 177.146ZM118.043 188.512L112.728 188.768L112.302 182.893C112.302 181.84 117.403 181.488 117.502 182.558L118.043 188.512ZM126.047 188.145L120.47 188.401L119.798 182.414C119.683 181.329 125.112 180.962 125.244 182.063L126.047 188.145ZM134.462 187.762L128.59 188.033L127.786 181.935C127.638 180.834 133.314 180.451 133.494 181.568L134.462 187.762Z" fill="#716361"/>
<path d="M115.415 183.165L115.787 188.146L117.415 188.057L117.056 183.583C117.029 183.24 116.201 183.091 115.415 183.165Z" fill="#716361"/>
<path d="M114.633 183.176H114.291H113.998H113.77H113.689H113.526H113.428C113.411 183.224 113.411 183.275 113.428 183.323L113.444 188.146L115.415 188.058L115.073 183.146L114.633 183.176Z" fill="#716361"/>
<path d="M122.415 182.169L123.11 188.146L125.415 188.041L124.757 182.783C124.683 182.239 123.531 182.081 122.415 182.169Z" fill="#716361"/>
<path d="M122.526 182.182H122.216H121.948H121.737H121.596H121.511L121.426 182.27C121.411 182.327 121.411 182.388 121.426 182.445L121.849 187.724L123.415 188.146L122.907 182.146L122.526 182.182Z" fill="#716361"/>
<path d="M130.415 182.164L131.227 187.146L133.415 187.061L132.653 182.649C132.653 182.235 131.459 182.093 130.415 182.164Z" fill="#716361"/>
<path d="M130.023 182.175H129.584H129.217H128.943H128.851H128.649H128.54H128.43C128.41 182.222 128.41 182.272 128.43 182.319L129.162 186.629L131.415 187.146L130.518 182.146L130.023 182.175Z" fill="#716361"/>
<path d="M103.155 176.452C106.111 177.853 109.279 178.69 112.511 178.924H112.591C115.789 179.221 119.005 179.221 122.203 178.924C125.558 178.656 128.886 178.09 132.152 177.231C135.881 176.345 139.441 174.793 142.677 172.644C144.167 171.543 143.093 170.951 142.148 171.205C136.541 172.897 134.138 173.185 130.934 172.897L112.895 174.59C109.791 175.476 106.535 175.597 103.379 174.946C102.53 174.996 101.825 175.724 103.155 176.452Z" fill="#716361"/>
<path d="M112.415 167.344L112.878 174.146L131.415 172.263L130.422 165.146C127.457 166.195 124.385 166.874 121.27 167.17C118.333 167.569 115.364 167.627 112.415 167.344ZM122.577 168.268C122.577 167.571 125.986 167.152 126.069 167.867L126.632 171.792L123.09 172.158L122.577 168.268ZM116.304 169.001C116.304 168.303 119.615 167.902 119.615 168.617L120.012 172.472L116.702 172.821L116.304 169.001Z" fill="#716361"/>
<path d="M107.952 165.761C110.083 166.599 112.336 167.054 114.614 167.107C116.805 167.205 118.999 167.12 121.177 166.851C123.451 166.579 125.701 166.118 127.904 165.472C130.386 164.8 132.751 163.725 134.91 162.287C135.911 161.538 135.222 161.163 134.582 161.385C123.901 164.995 120.553 161.146 120.553 161.146C120.553 161.146 118.191 165.727 108.051 164.927C107.493 164.825 107.001 165.319 107.952 165.761Z" fill="#716361"/>
<path d="M118.415 169.17L118.601 172.146L119.415 172.035L119.229 169.408C119.229 169.17 118.81 169.106 118.415 169.17Z" fill="#716361"/>
<path d="M124.415 168.171L124.652 171.146L125.415 171.021L125.199 168.406C125.178 168.156 124.755 168.109 124.415 168.171Z" fill="#716361"/>
<path d="M123.83 168.618H123.692H123.575H123.479H123.415L123.617 171.146L124.415 171.04L124.17 168.146H124.021L123.83 168.618Z" fill="#716361"/>
<g style="mix-blend-mode:multiply" opacity="0.55">
<g style="mix-blend-mode:multiply" opacity="0.55">
<path d="M92.6215 169.416L146.491 166.563C146.491 166.563 157.723 135.93 158.959 132.195C160.965 126.376 160.098 122.577 163.003 117.143L102.554 126.104L75.6279 139.408L75.997 140.37C80.3136 144.458 92.6215 169.416 92.6215 169.416Z" fill="#D6C2A6"/>
</g>
</g>
<path d="M170.221 121.146C170.928 117.442 167.945 114.058 167.53 110.289C167.383 108.809 167.633 107.317 168.252 105.977C168.871 104.637 169.834 103.504 171.035 102.703C171.541 102.34 172.13 102.124 172.741 102.077C173.046 102.06 173.349 102.129 173.619 102.275C173.889 102.422 174.117 102.642 174.279 102.911C174.817 103.938 173.941 105.14 173.141 105.958C173.46 106.082 173.801 106.135 174.141 106.113C174.48 106.092 174.812 105.997 175.115 105.834C175.417 105.67 175.684 105.443 175.897 105.166C176.11 104.89 176.266 104.569 176.354 104.226C176.489 103.518 176.4 102.784 176.1 102.133C175.801 101.483 175.307 100.951 174.694 100.618C174.072 100.307 173.392 100.146 172.703 100.146C172.014 100.146 171.334 100.307 170.712 100.618C169.454 101.227 168.361 102.153 167.53 103.312C166.421 104.648 165.578 106.201 165.05 107.881C164.522 109.561 164.32 111.333 164.456 113.095C164.629 114.856 165.257 116.534 166.272 117.952C167.287 119.37 168.652 120.474 170.221 121.146Z" fill="#FBDF6A"/>
<path d="M110.21 133.146C110.768 129.104 110.181 124.992 108.513 121.248C107.649 119.386 106.3 117.772 104.6 116.566C102.9 115.36 100.907 114.602 98.8141 114.367C98.0069 114.249 97.1822 114.331 96.4164 114.606C95.6506 114.88 94.9686 115.337 94.4334 115.934C94.0054 116.641 93.8578 117.476 94.0185 118.281C94.1792 119.086 94.6371 119.807 95.3063 120.308C96.0009 120.778 96.8275 121.03 97.6745 121.03C98.5215 121.03 99.3481 120.778 100.043 120.308C100.719 119.815 101.261 119.168 101.619 118.425C101.977 117.681 102.14 116.863 102.096 116.044C101.973 114.396 101.218 112.852 99.978 111.717C99.4869 111.199 98.8857 110.791 98.2159 110.52C97.546 110.25 96.8236 110.123 96.0984 110.15C95.3776 110.204 94.7035 110.517 94.2075 111.027C93.7114 111.537 93.4289 112.208 93.415 112.909C94.1953 112.373 95.132 112.093 96.0882 112.11C97.0443 112.127 97.9696 112.441 98.7285 113.006C99.4874 113.57 100.04 114.355 100.306 115.246C100.571 116.137 100.536 117.087 100.204 117.956C99.9454 118.69 99.4156 119.304 98.7171 119.681C98.3623 119.854 97.9624 119.921 97.5681 119.874C97.1737 119.827 96.8029 119.667 96.5025 119.414C96.1776 119.063 95.9979 118.608 95.9979 118.137C95.9979 117.665 96.1776 117.21 96.5025 116.859C96.8434 116.52 97.2647 116.267 97.7296 116.122C98.1946 115.977 98.689 115.945 99.1697 116.028C100.129 116.202 101.032 116.594 101.805 117.173C104.1 118.801 105.843 121.057 106.811 123.651C107.778 126.245 107.926 129.06 107.236 131.736L110.21 133.146Z" fill="#FBDF6A"/>
<g style="mix-blend-mode:multiply">
<path d="M153.415 175.05C151.81 176.071 150.109 177.012 148.519 177.793C138.648 182.578 128.038 182.004 118.023 177.793C108.091 173.563 99.6536 166.489 93.7855 157.474C90.8191 152.648 88.4071 147.507 86.5947 142.146L80.415 145.177L104.203 204.955L151.938 205.146C152.516 201.143 153.415 175.05 153.415 175.05Z" fill="#F1EAE2"/>
</g>
<path d="M191.705 116.06C190.155 114.062 188.399 112.222 186.465 110.568C184.519 108.897 182.075 107.87 179.488 107.635C177.443 107.592 175.445 108.238 173.836 109.465C172.227 110.691 171.105 112.421 170.663 114.36C170.372 111.953 169.141 109.747 167.223 108.197C165.305 106.638 163.187 105.326 160.922 104.296C158.763 104.004 156.565 104.141 154.462 104.698C152.359 105.256 150.395 106.224 148.689 107.541C147.103 108.629 145.964 110.226 145.474 112.051C145.256 114.262 145.644 116.491 146.599 118.51C147.733 122.06 149.355 125.445 151.422 128.573C152.391 129.924 153.561 131.128 154.894 132.146L175.116 129.291C180.63 125.983 186.079 122.535 191.4 118.947C191.87 118.701 192.231 118.296 192.412 117.808C192.428 117.485 192.373 117.162 192.251 116.861C192.13 116.559 191.943 116.287 191.705 116.06Z" fill="#FBDF6A"/>
<path d="M188.813 117.091L185.123 114.239C183.616 112.923 181.88 111.915 180.01 111.27C179.09 110.95 178.099 110.923 177.165 111.192C176.23 111.461 175.395 112.014 174.766 112.78C174.234 113.756 173.826 114.799 173.553 115.884C173.458 116.527 173.163 117.12 172.712 117.572C172.261 118.024 171.68 118.311 171.056 118.387C170.433 118.463 169.803 118.325 169.263 117.994C168.723 117.663 168.303 117.157 168.067 116.555C167.258 115.363 166.821 113.937 166.06 112.696C165.221 111.401 164.109 110.32 162.808 109.535C161.508 108.751 160.052 108.283 158.551 108.166C155.626 108.003 152.73 108.846 150.314 110.565C147.952 112.245 145.861 114.3 144.116 116.655C143.534 117.393 143.032 118.618 143.825 119.239C144.618 119.86 145.346 119.239 145.929 118.769C147.709 117.276 149.343 115.598 151.221 114.223C153.095 112.751 155.347 111.887 157.694 111.74C158.893 111.684 160.087 111.934 161.171 112.47C162.255 113.005 163.195 113.809 163.908 114.81C164.652 115.967 164.992 117.343 165.72 118.484C166.559 119.772 167.844 120.676 169.309 121.008C170.774 121.339 172.305 121.072 173.585 120.262C174.64 119.327 175.576 118.256 176.368 117.075C176.763 116.495 177.271 116.009 177.86 115.648C178.448 115.286 179.103 115.058 179.783 114.978C180.563 115.078 181.314 115.346 181.989 115.765C182.663 116.184 183.246 116.744 183.699 117.41C184.588 118.755 185.734 119.897 187.065 120.765C187.709 121.128 188.463 121.218 189.169 121.017C189.519 120.906 189.827 120.685 190.05 120.384C190.273 120.084 190.401 119.719 190.415 119.339C190.399 118.333 189.574 117.662 188.813 117.091Z" fill="#E5B348"/>
<path d="M129.415 109.348C129.415 109.348 136.125 98.5769 145.897 101.722C155.668 104.867 155.414 114.758 155.414 114.758C155.414 114.758 150.164 129.163 140.709 129.146C131.255 129.13 130.954 113.047 129.415 109.348Z" fill="#BE7139"/>
<g style="mix-blend-mode:multiply" opacity="0.55">
<path d="M151.862 105.377C151.452 107.123 150.552 108.704 149.276 109.92C146.722 112.29 142.931 114.381 139.583 112.225C136.728 110.348 135.554 106.924 132.746 105.146C131.488 106.327 130.37 107.658 129.415 109.113C131.001 112.85 131.001 129.146 140.694 129.146C150.386 129.146 155.415 114.578 155.415 114.578C155.228 111.191 153.98 107.96 151.862 105.377Z" fill="#C47F4C"/>
</g>
<path d="M135.776 135.665L160.473 132.319L165.415 131.262C163.737 130.988 162.08 130.592 160.457 130.076C156.821 128.127 155.386 124.553 156.997 121.124C158.065 118.834 161.86 113.196 157.65 111.376C156.959 111.11 156.22 110.993 155.482 111.035C153.864 111.073 152.277 111.497 150.848 112.273C149.419 113.049 148.189 114.155 147.255 115.503C145.47 118.119 144.322 121.254 141.133 122.473C135.154 124.829 136.988 116.705 135.553 113.456C134.889 112.162 133.932 111.049 132.762 110.207C130.994 108.701 128.862 107.705 126.588 107.322C124.315 106.94 121.982 107.184 119.832 108.029C117.282 109.266 115.211 111.337 113.949 113.911C112.744 116.328 111.855 118.895 111.302 121.547C110.872 123.48 110.25 126.112 108.257 126.99C106.264 127.867 103.841 125.121 102.438 123.74C99.7591 121.254 94.8804 120.491 91.5801 120.816C85.5055 121.498 80.8022 127.851 82.9386 133.813C84.3805 137.263 86.9491 140.099 90.2089 141.839L90.3046 141.742C90.735 141.937 90.464 141.985 90.8785 141.904C92.5526 143.35 95.2311 143.204 97.3517 143.058C101.864 142.765 106.153 142.375 110.681 141.953C118.062 141.271 125.333 140.02 132.603 139.418L136.573 139.126L135.776 135.665Z" fill="#FBDF6A"/>
<path d="M141.213 129.337C143.069 128.505 147.475 121.725 149.573 124.252C151.187 126.292 149.96 130.624 150.477 132.946L150.574 133.26L155.415 132.57C153.974 131.642 152.939 130.227 152.51 128.599C152.148 127.171 152.192 125.673 152.639 124.267C152.909 123.629 153.037 122.943 153.015 122.253C152.992 121.563 152.82 120.886 152.51 120.266C151.816 119.857 150.622 119.418 149.993 119.999C149.912 119.999 148.718 120.893 147.491 121.568C146.485 122.191 145.53 122.889 144.635 123.655C142.643 125.291 140.235 126.375 137.663 126.794C134.758 127.124 133.806 125.382 133.225 123.043C132.741 121.16 132.644 118.163 131.111 116.577C130.64 116.105 130.071 115.733 129.443 115.487C128.815 115.241 128.141 115.126 127.464 115.149C124.737 115.119 122.083 116 119.943 117.645C117.375 119.563 115.399 122.131 114.23 125.068C113.633 126.637 113.149 128.207 112.504 129.776C111.261 132.711 108.937 134.123 105.71 131.816C103.386 130.137 101.869 128.034 99.1091 126.841C95.7039 125.35 92.4279 125.021 89.4262 126.7C83.2937 130.074 87.538 136.948 93.1702 139.475C94.1224 139.899 94.1869 140.746 94.9616 139.475C95.7362 138.204 92.3795 136.524 91.7339 135.646C88.8936 132.177 93.5575 129.556 96.9788 130.137C100.4 130.718 102.482 133.966 105.855 134.892C107.283 135.218 108.775 135.16 110.171 134.723C111.567 134.286 112.814 133.487 113.779 132.413C116.215 129.839 117.845 126.418 119.847 123.53C121.138 121.678 124.381 118.822 127.109 120.925C129.497 122.714 129.61 126.48 131.805 128.599C134.484 131.141 138.325 130.655 141.213 129.337Z" fill="#E5B348"/>
<path d="M121.437 137.545C121.437 137.545 120.291 119.726 134.681 122.425C148.629 125.011 149.415 134.719 149.415 134.719C149.415 134.719 126.495 142.382 121.437 137.545Z" fill="#BE7139"/>
<path d="M185.415 121.539C185.415 121.539 174.173 109.919 164.103 120.793C158.209 127.162 163.846 134.146 163.846 134.146L185.415 121.539Z" fill="#BE7139"/>
<g style="mix-blend-mode:multiply" opacity="0.55">
<path d="M191.72 116.228L190.788 115.067C188.054 113.198 185.723 111.103 181.88 112.731C178.97 115.051 177.057 119.273 173.841 121.255C170.626 123.238 166.044 122.545 162.78 124.011C161.772 125.39 160.544 126.593 159.146 127.572C158.458 128.607 157.556 129.482 156.503 130.138C155.449 130.794 154.267 131.216 153.036 131.375C151.537 131.645 149.996 131.576 148.528 131.171C147.059 130.767 145.699 130.038 144.547 129.039C144.419 129.039 139.354 127.621 139.241 127.621C131.829 128.297 136.556 132.761 122.07 131.81C120.339 132.931 118.34 133.565 116.282 133.648C112.503 135.565 107.326 135.791 102.921 136.258C100.075 136.548 95.107 137.451 91.9878 135.968C90.9586 135.49 89.8216 135.294 88.6921 135.398C87.5626 135.503 86.4809 135.905 85.5566 136.564L84.415 137.386C85.8958 139.175 87.6813 140.686 89.6887 141.85L89.7851 141.753C90.2192 141.947 89.9459 141.995 90.3639 141.914C92.0521 143.349 94.7533 143.203 96.8916 143.058C101.442 142.768 105.767 142.382 110.333 141.963C117.777 141.286 125.109 140.045 132.44 139.449L136.444 139.159L136.331 138.675C140.574 137.766 144.761 136.615 148.872 135.227C148.828 134.79 148.742 134.358 148.615 133.938L160.497 132.326L162.104 131.988C162.438 132.781 162.853 133.537 163.342 134.244L169.42 130.731L175.112 129.893C179.613 127.105 184.051 124.188 188.44 121.207C188.643 121.195 188.842 121.157 189.035 121.094C189.287 121.011 189.517 120.874 189.712 120.693C189.906 120.513 190.059 120.292 190.161 120.047L191.399 119.209C191.869 118.955 192.23 118.536 192.412 118.033C192.429 117.7 192.377 117.367 192.258 117.056C192.139 116.745 191.956 116.463 191.72 116.228Z" fill="#C47F4C"/>
</g>
<path d="M75.415 138.592L93.5036 162.146L142.76 158.104L159.415 132.146L75.415 138.592Z" fill="#EFEFEC"/>
<g style="mix-blend-mode:multiply">
<path d="M105.923 138.146L78.415 140.301L95.0632 161.146L137.415 157.603C126.799 151.346 116.377 144.722 105.923 138.146Z" fill="#F2EBE5"/>
</g>
<g style="mix-blend-mode:multiply">
<path d="M172.243 175.727L174.62 133.146L170.712 133.727L170.058 176.098L155.543 205.646L155.415 209.146L157.106 208.033L171.079 184.179L180.139 192.824L180.761 192.421L181.415 188.824L172.243 175.727Z" fill="#EBE5DF"/>
</g>
<g style="mix-blend-mode:multiply" opacity="0.55">
<path d="M189.827 144.154L195.415 113.146L159.415 132.234C159.415 132.234 168.18 154.01 172.265 159.146C175.709 157.274 189.827 144.154 189.827 144.154Z" fill="#DBC9B0"/>
</g>
<path d="M173.783 151.146L200.415 132.283L196.305 113.146L159.415 132.331L173.783 151.146Z" fill="#EFEFEC"/>
<g style="mix-blend-mode:multiply">
<path d="M162.415 134.081L173.741 148.146L198.415 131.485L197.687 128.146C186.62 129.692 173.45 132.52 162.415 134.081Z" fill="#F2EBE5"/>
</g>
<circle cx="105.915" cy="221.646" r="3.5" fill="#73A624"/>
<path d="M181.293 227.214C180.254 229.04 177.279 228.498 175.658 227.524C174.037 226.55 171.861 224.231 173.71 221.154C175.559 218.077 178.733 220.079 180.355 221.053C181.976 222.028 182.332 225.387 181.293 227.214Z" fill="#73A624"/>
<path d="M212.185 150.885C213.991 152.467 212.011 156.376 210.092 158.434C208.172 160.491 204.344 163.144 201.345 160.346C198.347 157.549 202.223 153.531 204.142 151.474C206.062 149.416 210.38 149.303 212.185 150.885Z" fill="#BE7139"/>
<path d="M252.533 317.116C248.226 321.021 242.056 322.124 239.643 319.463C237.23 316.802 237.205 313.204 241.512 309.298C245.82 305.392 248.971 305.407 251.384 308.068C253.798 310.729 256.84 313.21 252.533 317.116Z" fill="#FF3333"/>
</svg>
