<svg width="83" height="32" viewBox="0 0 83 32" fill="none" xmlns="http://www.w3.org/2000/svg">
<g clip-path="url(#clip0_169_22494)">
<path d="M21.2205 2.78789C21.3221 5.30937 23.3121 14.9315 23.3121 14.9315C24.0434 16.8803 24.673 14.9315 24.673 14.9315C27.0805 7.02662 22.1605 2.44566 22.1605 2.44566C20.9046 1.64204 21.2205 2.78789 21.2205 2.78789ZM49.7872 1.41409C49.7872 1.41409 52.1958 3.24684 49.7872 3.59029C49.7872 3.59029 40.7873 4.73553 34.0905 11.6112C34.0905 11.6112 24.0434 21.2315 20.2772 31.7721C20.2772 31.7721 19.0212 31.7721 19.4415 29.7108C19.8596 27.6489 22.3699 18.5976 33.5658 7.48678C33.5658 7.48678 44.3475 -3.28298 49.7872 1.41409Z" fill="#FF4600"/>
<path d="M4.00087 16.6656C4.39842 16.7574 4.75544 16.8024 5.27959 16.8024C7.33232 16.8024 8.71543 15.3568 8.71543 13.521C8.71543 11.8694 7.64714 11.2737 6.26515 11.2737C5.65604 11.2737 5.19519 11.3199 4.90203 11.4105L4.00087 16.6656ZM2.84818 9.50662C3.7077 9.27623 4.98642 9.13946 6.24349 9.13946C7.56441 9.13946 8.94752 9.43672 9.86922 10.2409C10.6865 10.9291 11.1685 11.9369 11.1685 13.3156C11.1685 15.1502 10.3717 16.6431 9.36562 17.5142C8.23459 18.5008 6.61939 18.9828 4.94311 18.9828C4.43951 18.9828 4.00087 18.9129 3.6233 18.8679L2.5961 24.7194H0.208008L2.84818 9.50662Z" fill="black"/>
<path d="M17.6424 15.471C17.3914 15.4011 17.0777 15.3567 16.6374 15.3567C14.3947 15.3567 12.6341 18.1341 12.6341 20.6811C12.6341 21.8494 13.0322 22.8141 14.1016 22.8141C15.2531 22.8141 16.6374 21.2549 17.1193 18.4088L17.6424 15.471ZM16.6579 24.7192C16.6579 24.0524 16.7412 23.1588 16.8261 22.2166H16.784C15.7784 24.2603 14.4153 24.9709 13.116 24.9709C11.2932 24.9709 10.0972 23.4105 10.0972 21.1625C10.0972 17.3536 12.5286 13.2917 17.2864 13.2917C18.3969 13.2917 19.5918 13.5209 20.3886 13.7963L19.3197 19.6246C19.0255 21.2762 18.8583 23.388 18.9005 24.7192H16.6579Z" fill="black"/>
<path d="M34.2597 20.2905C34.2597 21.826 34.9932 22.9074 36.2508 22.9074C38.0743 22.9074 39.2902 20.1525 39.2902 17.927C39.2902 16.7788 38.8072 15.3563 37.3413 15.3563C35.3919 15.3563 34.2597 18.2024 34.2597 20.2905ZM41.8049 17.9052C41.8049 21.7129 39.3941 24.9705 35.916 24.9705C33.3369 24.9705 31.7456 23.0204 31.7456 20.3579C31.7456 16.5733 34.1554 13.292 37.6345 13.292C40.3796 13.292 41.8049 15.4487 41.8049 17.9052Z" fill="black"/>
<path d="M42.2637 24.7192L43.5846 17.0089C43.8356 15.6776 43.9821 14.5074 44.1082 13.5446H46.2892L46.0582 15.5408H46.0993C47.0415 14.0485 48.3419 13.2917 49.7672 13.2917C51.2336 13.2917 52.3658 14.2564 52.3658 16.3669C52.3658 16.8709 52.2836 17.6508 52.1781 18.2021L51.0654 24.7192H48.6134L49.7023 18.4088C49.7672 17.9961 49.8294 17.514 49.8294 17.0775C49.8294 16.1366 49.5151 15.4709 48.5512 15.4709C47.4408 15.4709 46.0149 16.939 45.5751 19.5565L44.6951 24.7192H42.2637Z" fill="black"/>
<path d="M58.8602 15.2879C57.3294 15.2879 56.3244 16.779 56.0312 18.134C58.5454 18.1565 60.1606 17.7893 60.1606 16.4362C60.1606 15.7249 59.6364 15.2879 58.8602 15.2879ZM61.1866 24.076C60.18 24.6492 58.8191 24.9708 57.5815 24.9708C54.7547 24.9708 53.3916 23.0675 53.3916 20.3363C53.3916 16.9632 55.6537 13.2922 59.175 13.2922C61.1866 13.2922 62.4654 14.5536 62.4654 16.4362C62.4654 19.3035 59.7208 20.2208 55.7808 20.1296C55.7381 20.5193 55.8219 21.2761 56.0529 21.7125C56.4515 22.4706 57.1828 22.8602 58.1484 22.8602C59.3021 22.8602 60.2227 22.5386 60.9584 22.1259L61.1866 24.076Z" fill="black"/>
<path d="M68.3529 15.2879C66.8237 15.2879 65.8171 16.779 65.5239 18.134C68.038 18.1565 69.6532 17.7893 69.6532 16.4362C69.6532 15.7249 69.1291 15.2879 68.3529 15.2879ZM70.6793 24.076C69.6743 24.6492 68.3118 24.9708 67.0764 24.9708C64.2474 24.9708 62.8843 23.0675 62.8843 20.3363C62.8843 16.9632 65.1463 13.2922 68.6677 13.2922C70.6793 13.2922 71.9603 14.5536 71.9603 16.4362C71.9603 19.3035 69.2135 20.2208 65.2735 20.1296C65.2302 20.5193 65.3146 21.2761 65.5456 21.7125C65.9442 22.4706 66.6771 22.8602 67.641 22.8602C68.7948 22.8602 69.7154 22.5386 70.4511 22.1259L70.6793 24.076Z" fill="black"/>
<path d="M72.105 24.7192L73.2993 17.835C73.5714 16.2521 73.718 14.5312 73.8212 13.5446H75.9389C75.8762 14.3014 75.814 15.0813 75.7085 15.8855H75.7707C76.4653 14.3932 77.5736 13.2917 78.9578 13.2917C79.1477 13.2917 79.3353 13.3154 79.5036 13.3154L79.0205 15.9311C78.895 15.9074 78.7274 15.9074 78.5591 15.9074C76.8184 15.9074 75.7085 17.835 75.3115 20.2209L74.5353 24.7192H72.105Z" fill="black"/>
<path d="M81.3575 14.5668H81.5363C81.7195 14.5668 81.8406 14.4549 81.8406 14.286C81.8406 14.0957 81.7134 14.0124 81.5302 14.0124C81.4458 14.0124 81.3858 14.0191 81.3575 14.0264V14.5668ZM81.1826 13.8927C81.2715 13.875 81.3986 13.8623 81.5169 13.8623C81.7023 13.8623 81.8256 13.9036 81.9072 13.9838C81.9744 14.0489 82.0133 14.1504 82.0133 14.2671C82.0133 14.4592 81.9028 14.5893 81.7606 14.641V14.6483C81.8639 14.6872 81.9244 14.7935 81.9589 14.9467C82.0022 15.151 82.0344 15.295 82.0627 15.3528H81.8817C81.86 15.3078 81.8295 15.1832 81.7951 14.999C81.754 14.7948 81.679 14.7194 81.5213 14.7121H81.3575V15.3528H81.1826V13.8927Z" fill="black"/>
<path d="M81.5836 13.292C80.9173 13.292 80.376 13.8847 80.376 14.6141C80.376 15.3436 80.9173 15.9369 81.5836 15.9369C82.2499 15.9369 82.7913 15.3436 82.7913 14.6141C82.7913 13.8847 82.2499 13.292 81.5836 13.292ZM81.5836 13.4963C82.1467 13.4963 82.6036 13.9953 82.6036 14.6141C82.6036 15.2324 82.1467 15.7333 81.5836 15.7333C81.0189 15.7333 80.5614 15.2324 80.5614 14.6141C80.5614 13.9953 81.0189 13.4963 81.5836 13.4963Z" fill="black"/>
</g>
<defs>
<clipPath id="clip0_169_22494">
<rect width="83" height="32" fill="white"/>
</clipPath>
</defs>
</svg>
