<svg width="173" height="142" viewBox="0 0 173 142" fill="none" xmlns="http://www.w3.org/2000/svg">
<circle cx="89" cy="76" r="66" fill="#F0F5FF"/>
<circle cx="89" cy="76" r="50" fill="#FFAD1D" opacity="0.3"/>
<path d="M86.5 97.875C73.05 97.875 62.125 86.95 62.125 73.5C62.125 60.05 73.05 49.125 86.5 49.125C99.95 49.125 110.875 60.05 110.875 73.5C110.875 86.95 99.95 97.875 86.5 97.875ZM86.5 52.875C75.125 52.875 65.875 62.125 65.875 73.5C65.875 84.875 75.125 94.125 86.5 94.125C97.875 94.125 107.125 84.875 107.125 73.5C107.125 62.125 97.875 52.875 86.5 52.875Z" fill="#FF7C32"/>
<path d="M92.75 75.375H80.25C79.225 75.375 78.375 74.525 78.375 73.5C78.375 72.475 79.225 71.625 80.25 71.625H92.75C93.775 71.625 94.625 72.475 94.625 73.5C94.625 74.525 93.775 75.375 92.75 75.375Z" fill="#DA6317"/>
<circle cx="164" cy="114" r="9" fill="#DA6317"/>
<circle cx="7" cy="70" r="7" fill="#DA6317"/>
<circle cx="141" cy="5" r="5" fill="#DA6317"/>
</svg>
