<svg width="34" height="34" viewBox="0 0 34 34" fill="none" xmlns="http://www.w3.org/2000/svg">
<rect opacity="0.1" width="34" height="34" rx="17" fill="#FF1D1D"/>
<path d="M22.8933 12.0736C22.5528 11.7329 22.1485 11.4627 21.7036 11.2783C21.2586 11.0939 20.7817 10.999 20.3 10.999C19.8183 10.999 19.3414 11.0939 18.8964 11.2783C18.4515 11.4627 18.0472 11.7329 17.7067 12.0736L17 12.7802L16.2933 12.0736C15.6055 11.3858 14.6727 10.9994 13.7 10.9994C12.7273 10.9994 11.7945 11.3858 11.1067 12.0736C10.4189 12.7614 10.0325 13.6942 10.0325 14.6669C10.0325 15.6396 10.4189 16.5724 11.1067 17.2602L11.8133 17.9669L17 23.1536L22.1867 17.9669L22.8933 17.2602C23.234 16.9197 23.5042 16.5154 23.6886 16.0705C23.873 15.6255 23.9679 15.1486 23.9679 14.6669C23.9679 14.1852 23.873 13.7083 23.6886 13.2633C23.5042 12.8184 23.234 12.4141 22.8933 12.0736Z" fill="#FFFFF" stroke="#FF1D1D" stroke-width="2" stroke-linecap="round" stroke-linejoin="round"/>
</svg>
